<?xml version="1.0" standalone="no"?>
<!DOCTYPE svg PUBLIC "-//W3C//DTD SVG 20010904//EN"
 "http://www.w3.org/TR/2001/REC-SVG-20010904/DTD/svg10.dtd">
<svg version="1.0" xmlns="http://www.w3.org/2000/svg"
 width="1280.000000pt" height="1280.000000pt" viewBox="0 0 1280.000000 1280.000000"
 preserveAspectRatio="xMidYMid meet">
<metadata>
Created by potrace 1.16, written by Peter Selinger 2001-2019
</metadata>
<g transform="translate(0.000000,1280.000000) scale(0.100000,-0.100000)"
fill="#000000" stroke="none">
<path d="M5941 9584 c-71 -19 -175 -74 -233 -124 -64 -55 -131 -160 -162 -252
l-26 -77 0 -564 0 -564 -307 -6 c-313 -5 -520 -21 -763 -58 -847 -129 -1557
-444 -2205 -980 -139 -115 -451 -429 -575 -579 -742 -895 -1261 -2098 -1569
-3635 -98 -489 -102 -521 -99 -780 l3 -229 58 97 c279 468 633 916 1028 1302
938 916 2137 1481 3473 1635 243 28 610 45 799 36 l157 -8 0 -564 0 -563 25
-79 c57 -182 213 -328 402 -377 118 -31 296 -15 395 36 23 12 861 609 1862
1328 1002 719 1842 1321 1867 1338 106 73 202 207 234 329 19 71 21 220 5 289
-25 102 -78 196 -154 269 -82 79 -3751 2716 -3825 2749 -25 11 -68 26 -96 33
-65 18 -225 17 -294 -2z"/>
<path d="M8802 9511 c-110 -41 -183 -109 -235 -219 -28 -61 -31 -76 -31 -162
0 -111 21 -176 82 -253 28 -36 448 -350 1662 -1242 894 -656 1644 -1211 1668
-1233 37 -34 42 -44 42 -82 0 -37 -5 -48 -37 -77 -21 -19 -769 -572 -1663
-1229 -894 -657 -1640 -1212 -1659 -1232 -18 -20 -48 -66 -65 -102 -29 -61
-31 -72 -31 -175 0 -104 2 -114 32 -176 99 -200 343 -281 543 -182 30 16 762
548 1625 1184 864 636 1609 1183 1656 1216 178 127 305 295 371 493 32 93 32
98 32 280 0 182 0 187 -32 280 -70 209 -190 363 -401 514 -64 46 -811 595
-1661 1221 -850 626 -1570 1149 -1600 1164 -76 35 -220 41 -298 12z"/>
</g>
</svg>
