<?xml version="1.0" ?><svg height="32" id="svg5" version="1.1" viewBox="0 0 31.999998 32" width="31.999998" xmlns="http://www.w3.org/2000/svg" xmlns:svg="http://www.w3.org/2000/svg"><defs id="defs2"/><g id="layer1" transform="translate(36,-244)"><path d="m -24.441406,246.01953 a 1,1 0 0 0 -0.253906,0.0606 1,1 0 0 0 -0.556641,0.52734 l -3.736328,8.40625 h -2.382813 c -1.625562,0 -2.864805,1.51424 -2.589844,3.10156 l 2.275391,13.13672 c 0.27851,1.60776 1.701469,2.76172 3.314453,2.76172 h 16.767578 c 1.6146236,0 3.0129939,-1.16107 3.3105472,-2.74805 a 1.0001,1.0001 0 0 0 0.00195,-0.0137 l 2.2734375,-13.12304 v -0.002 c 0.2984381,-1.59859 -0.9594258,-3.11328 -2.5859375,-3.11328 h -2.3847652 l -3.736328,-8.40625 a 1,1 0 0 0 -0.554688,-0.52734 1,1 0 0 0 -0.763672,0.0195 1,1 0 0 0 -0.507812,1.32031 l 3.375,7.59375 h -13.623047 l 3.375,-7.59375 a 1,1 0 0 0 -0.507813,-1.32031 1,1 0 0 0 -0.509765,-0.0801 z m -6.929688,10.99414 h 22.7675784 c 0.4158017,0 0.6977221,0.33741 0.6210937,0.7461 a 1.0001,1.0001 0 0 0 -0.00195,0.0137 l -2.2753911,13.12695 c -0.124291,0.65116 -0.680335,1.11328 -1.34375,1.11328 h -16.767578 c -0.66661,0 -1.23316,-0.46511 -1.34375,-1.10351 l -2.27539,-13.13672 c -0.07374,-0.42569 0.201708,-0.75977 0.61914,-0.75977 z" id="rect40272" style="color:#000000;fill:#002cba;fill-opacity:1;fill-rule:evenodd;stroke-linecap:round;stroke-linejoin:round;stroke-miterlimit:4.1;-inkscape-stroke:none"/><path d="m -20,259.01367 a 1,1 0 0 0 -1,1 v 8 a 1,1 0 0 0 1,1 1,1 0 0 0 1,-1 v -8 a 1,1 0 0 0 -1,-1 z" id="path43195" style="color:#000000;fill:#00c89f;fill-opacity:1;fill-rule:evenodd;stroke-linecap:round;stroke-linejoin:round;stroke-miterlimit:4.1;-inkscape-stroke:none"/><path d="m -24,259.01367 a 1,1 0 0 0 -1,1 v 8 a 1,1 0 0 0 1,1 1,1 0 0 0 1,-1 v -8 a 1,1 0 0 0 -1,-1 z" id="path43243" style="color:#000000;fill:#00c89f;fill-opacity:1;fill-rule:evenodd;stroke-linecap:round;stroke-linejoin:round;stroke-miterlimit:4.1;-inkscape-stroke:none"/><path d="m -16,259.01367 a 1,1 0 0 0 -1,1 v 8 a 1,1 0 0 0 1,1 1,1 0 0 0 1,-1 v -8 a 1,1 0 0 0 -1,-1 z" id="path43245" style="color:#000000;fill:#00c89f;fill-opacity:1;fill-rule:evenodd;stroke-linecap:round;stroke-linejoin:round;stroke-miterlimit:4.1;-inkscape-stroke:none"/></g></svg>