<?xml version="1.0" ?><svg height="32" id="svg5" version="1.1" viewBox="0 0 32 32" width="32" xmlns="http://www.w3.org/2000/svg" xmlns:svg="http://www.w3.org/2000/svg"><defs id="defs2"/><g id="layer1" transform="translate(-204,-244)"><path d="m 215.55859,246.01953 a 1,1 0 0 0 -0.2539,0.0606 1,1 0 0 0 -0.55664,0.52734 l -3.73633,8.40625 h -2.38086 c -1.62527,0 -2.86284,1.51427 -2.58789,3.10156 l 2.27539,13.13477 c 0.2785,1.60767 1.69864,2.76367 3.3125,2.76367 h 16.76758 c 1.6155,0 3.013,-1.16312 3.31054,-2.75 a 1.0001,1.0001 0 0 0 0.002,-0.0137 l 2.04101,-11.7793 a 1,1 0 0 0 -0.81445,-1.15429 1,1 0 0 0 -1.1543,0.81445 l -2.03906,11.76562 c -0.12256,0.65369 -0.68161,1.11719 -1.3457,1.11719 H 211.6309 c -0.66573,0 -1.23314,-0.46503 -1.34375,-1.10351 l -2.27539,-13.13477 c -0.0737,-0.42572 0.20142,-0.76172 0.61914,-0.76172 h 15.37109 a 1,1 0 0 0 1,-1 1,1 0 0 0 -1,-1 h -10.80078 l 3.375,-7.59375 a 1,1 0 0 0 -0.50781,-1.32031 1,1 0 0 0 -0.50977,-0.0801 z" id="path43357" style="color:#000000;fill:#002cba;fill-opacity:1;fill-rule:evenodd;stroke-linecap:round;stroke-linejoin:round;stroke-miterlimit:4.1;-inkscape-stroke:none"/><path d="m 224.7207,246.08008 a 1,1 0 0 0 -0.76562,0.0195 1,1 0 0 0 -0.50586,1.32031 l 2.0918,4.70508 a 1,1 0 0 0 1.31835,0.50781 1,1 0 0 0 0.50782,-1.31836 l -2.0918,-4.70703 a 1,1 0 0 0 -0.55469,-0.52734 z" id="path43359" style="color:#000000;fill:#002cba;fill-opacity:1;fill-rule:evenodd;stroke-linecap:round;stroke-linejoin:round;stroke-miterlimit:4.1;-inkscape-stroke:none"/><path d="m 220,259.01367 a 1,1 0 0 0 -1,1 v 8 a 1,1 0 0 0 1,1 1,1 0 0 0 1,-1 v -8 a 1,1 0 0 0 -1,-1 z" id="path43361" style="color:#000000;fill:#00c89f;fill-opacity:1;fill-rule:evenodd;stroke-linecap:round;stroke-linejoin:round;stroke-miterlimit:4.1;-inkscape-stroke:none"/><path d="m 216,259.01367 a 1,1 0 0 0 -1,1 v 8 a 1,1 0 0 0 1,1 1,1 0 0 0 1,-1 v -8 a 1,1 0 0 0 -1,-1 z" id="path43363" style="color:#000000;fill:#00c89f;fill-opacity:1;fill-rule:evenodd;stroke-linecap:round;stroke-linejoin:round;stroke-miterlimit:4.1;-inkscape-stroke:none"/><path d="m 224,262.01367 a 1,1 0 0 0 -1,1 v 5 a 1,1 0 0 0 1,1 1,1 0 0 0 1,-1 v -5 a 1,1 0 0 0 -1,-1 z" id="path43365" style="color:#000000;fill:#00c89f;fill-opacity:1;fill-rule:evenodd;stroke-linecap:round;stroke-linejoin:round;stroke-miterlimit:4.1;-inkscape-stroke:none"/><path d="m 229,250.01367 c -3.30186,0 -6,2.69814 -6,6 0,3.30186 2.69814,6 6,6 3.30186,0 6,-2.69814 6,-6 0,-3.30186 -2.69814,-6 -6,-6 z m 0,2 c 2.22098,0 4,1.77902 4,4 0,2.22098 -1.77902,4 -4,4 -2.22098,0 -4,-1.77902 -4,-4 0,-2.22098 1.77902,-4 4,-4 z" id="circle43373" style="color:#000000;fill:#00c89f;fill-opacity:1;fill-rule:evenodd;stroke-linecap:round;stroke-linejoin:round;stroke-miterlimit:4.1;-inkscape-stroke:none"/><path d="m 231.10156,254.01758 a 1,1 0 0 0 -0.73437,0.2207 l -2.0293,1.6543 -0.65625,-0.61133 a 1,1 0 0 0 -1.41211,0.0488 1,1 0 0 0 0.0488,1.41406 l 1.29297,1.20703 a 1.0001,1.0001 0 0 0 1.3125,0.043 l 2.70898,-2.20703 a 1,1 0 0 0 0.14258,-1.40625 1,1 0 0 0 -0.67383,-0.36328 z" id="path43375" style="color:#000000;fill:#00c89f;fill-opacity:1;fill-rule:evenodd;stroke-linecap:round;stroke-linejoin:round;stroke-miterlimit:4.1;-inkscape-stroke:none"/></g></svg>