<svg width="32" height="32" xmlns="http://www.w3.org/2000/svg">

 <title/>
 <g>
  <title>background</title>
  <rect fill="none" id="canvas_background" height="402" width="582" y="-1" x="-1"/>
 </g>
 <g>
  <title>Layer 1</title>
  <path stroke="#ff0000" fill="#ff0000" id="svg_1" d="m15.48538,28.252164a3,3 0 0 1 -2.13,-0.88l-10.3,-10.3a8.72,8.72 0 0 1 -2.52,-6.25a8.06,8.06 0 0 1 8.14,-8a8.06,8.06 0 0 1 5.81,2.39l1,1l0.82,-0.82l0,0a8.39,8.39 0 0 1 11,-0.89a8.25,8.25 0 0 1 0.81,12.36l-10.5,10.51a3,3 0 0 1 -2.13,0.88zm-6.85,-23.44a6.12,6.12 0 0 0 -4.26,1.72a6,6 0 0 0 -1.84,4.33a6.72,6.72 0 0 0 1.95,4.8l10.3,10.3a1,1 0 0 0 1.42,0l10.51,-10.52a6.25,6.25 0 0 0 1.77,-4.8a6.18,6.18 0 0 0 -2.43,-4.55a6.37,6.37 0 0 0 -8.37,0.71l-1.49,1.53a1,1 0 0 1 -1.42,0l-1.7,-1.7a6.28,6.28 0 0 0 -4.4,-1.82l-0.04,0z" class="cls-1"/>
  <path d="m6.853805,17.002924c0,0.046783 0.04106,0.096655 0.093567,0.187134c0.084665,0.145893 0.140351,0.233919 0.233918,0.327486c0.046783,0.046783 0.14035,0.14035 0.187134,0.187134c0.093567,0.093567 0.178369,0.150026 0.280701,0.233919c0.130447,0.106943 0.213249,0.211428 0.374269,0.327484c0.254596,0.1835 0.462622,0.243 0.701754,0.374269c0.183406,0.100679 0.33089,0.228394 0.561403,0.374269c0.142537,0.090202 0.327485,0.233917 0.421053,0.327484c0.14035,0.14035 0.228374,0.196035 0.374269,0.280703c0.090479,0.052507 0.187135,0.14035 0.280702,0.187134c0.093567,0.046783 0.130854,0.152349 0.187135,0.187134c0.125848,0.077778 0.233917,0.093567 0.327485,0.187136c0.046783,0.046783 0.154325,0.091158 0.233918,0.14035c0.088987,0.054996 0.079184,0.102268 0.14035,0.187134c0.038686,0.053673 0.107269,0.107269 0.140351,0.14035c0.033081,0.033081 0.093567,0.140352 0.093567,0.187136c0,0.046783 0.093567,0.093567 0.14035,0.187134c0.046784,0.093567 0.075664,0.190695 0.093568,0.233919c0.050638,0.122252 0.107269,0.200836 0.14035,0.233917c0.033081,0.033081 0.013702,0.060486 0.046783,0.093567c0.033082,0.033081 0.046784,0.046783 0.046784,0.093567c0,0.046783 0.046783,0.093567 0.046783,0.14035c0,0.046785 0.046783,0.093569 0.046783,0.140352c0,0.093567 0.021464,0.126009 0.046783,0.187134c0.017903,0.043222 0.025319,0.061125 0,0c-0.017903,-0.043222 -0.084803,-0.196808 -0.187135,-0.280701c-0.130448,-0.106943 -0.369559,-0.379858 -0.701754,-0.654972c-0.230714,-0.191071 -0.608187,-0.51462 -0.888888,-0.65497c-0.374269,-0.187134 -0.661756,-0.28677 -0.935673,-0.51462c-0.12968,-0.10787 -0.233917,-0.187134 -0.327485,-0.233917c-0.093567,-0.046783 -0.14493,-0.178921 -0.233918,-0.233917c-0.039797,-0.024595 -0.079184,-0.10227 -0.14035,-0.187136c-0.038686,-0.053673 -0.075664,-0.097128 -0.093567,-0.14035c-0.050638,-0.122252 -0.10227,-0.125967 -0.187135,-0.187134c-0.053673,-0.038685 -0.134809,-0.10247 -0.280702,-0.187136c-0.090479,-0.052507 -0.187135,-0.093567 -0.233918,-0.14035c-0.046783,-0.046783 -0.093567,-0.093567 -0.093567,-0.14035c0,-0.046783 -0.036035,-0.094818 -0.046783,-0.14035c-0.024035,-0.101814 0.026449,-0.194199 -0.093568,-0.280703c-0.037952,-0.027355 -0.027405,-0.120972 -0.093567,-0.187134c-0.033081,-0.033081 -0.079224,-0.16567 -0.140351,-0.140352c-0.043224,0.017904 -0.014384,0.149054 0.046783,0.233919c0.116057,0.16102 0.228392,0.284105 0.374269,0.51462c0.090201,0.142536 0.181412,0.283789 0.233918,0.374268c0.084665,0.145895 0.097334,0.256699 0.187134,0.374269c0.102388,0.134052 0.197038,0.220545 0.327486,0.327486c0.102331,0.083891 0.225704,0.14493 0.280702,0.233917c0.024595,0.039797 0.068248,0.079226 0.093567,0.14035c0.017903,0.043222 0.0324,0.10227 0.093567,0.187136c0.038686,0.053673 0.087844,0.143438 0.140351,0.233917c0.084665,0.145893 0.183768,0.262505 0.280702,0.374269c0.068542,0.079029 0.195836,0.079184 0.280702,0.14035c0.053674,0.038685 0.143911,0.075665 0.187134,0.093567c0.061127,0.025318 0.107542,0.044376 0.187135,0.093567c0.088988,0.054998 0.088024,0.10247 0.233918,0.187136c0.090479,0.052507 0.187135,0.187134 0.327485,0.280701c0.140351,0.093567 0.327485,0.187134 0.467836,0.233919c0.14035,0.046783 0.237588,0.036951 0.374269,0.093567c0.096648,0.040033 0.140351,0.046783 0.233918,0.093567c0.093567,0.046783 0.240982,0.020334 0.327485,0.14035c0.027355,0.037952 0.093567,0.093567 0.140351,0.14035c0.046783,0.046783 0.032441,0.115034 0.093567,0.140352c0.043222,0.017902 0.060486,0.107269 0.093567,0.14035c0.033081,0.033081 0.099104,0.071491 0.140351,0.093567c0.148721,0.079594 0.126008,0.161816 0.187134,0.187134c0.043222,0.017902 0.046783,0.046783 0.093568,0.046783c0.046783,0 0.05377,0.02219 0.093567,0.046785c0.088987,0.054996 0.101665,0.133461 0.140351,0.187134c0.061168,0.084864 0.122447,0.190695 0.14035,0.233917c0.050638,0.122252 0.14035,0.187136 0.233918,0.280703c0.046783,0.046783 0.115755,0.100554 0.14035,0.14035c0.054997,0.088987 0.132137,0.098146 0.187135,0.187134c0.049191,0.079594 0.104543,0.100689 0.14035,0.187136c0.02532,0.061127 0.10727,0.107269 0.140351,0.14035c0.033081,0.033081 0.060486,0.060486 0.093567,0.093567c0.033081,0.033081 0.013702,0.060486 0.046783,0.093567c0.033081,0.033081 0.010977,0.053905 0.046784,0.140352c0.025319,0.061125 0.060486,0.060486 0.093567,0.093567c0.033081,0.033081 0.046783,0.046783 0.046783,0.093567c0,0.046783 0.02888,0.050344 0.046783,0.093567c0.02532,0.061127 -0.019378,0.120972 0.046784,0.187134c0.033081,0.033081 0.054881,0.086678 0.093567,0.140352c0.061166,0.084866 0.046783,0.14035 0.093567,0.187134c0.046783,0.046783 0.032441,0.115032 0.093567,0.14035c0.043223,0.017904 0.060487,0.013702 0.093568,0.046783c0.033081,0.033081 0.094818,0.036036 0.14035,0.046783c0.101813,0.024035 0.085322,0.116318 0.187135,0.140352c0.045532,0.010748 0.085321,0.022749 0.187135,0.046783c0.045532,0.010748 0.107269,-0.033081 0.14035,0c0.033081,0.033081 0.046783,0.046783 0.093567,0.046783c0.046783,0 0.107269,0.060486 0.14035,0.093567c0.033083,0.033083 0.093569,0.046783 0.140352,0.046783c0.046783,0 0.093567,0 0.187134,0c0.046783,0 0.093567,-0.046783 0.14035,-0.093567c0.046783,-0.046783 0.079185,-0.102268 0.140352,-0.187134c0.038687,-0.053675 0.109762,-0.126574 0.187134,-0.233919c0.061167,-0.084866 0.087843,-0.237005 0.14035,-0.327486c0.084665,-0.145893 0.102467,-0.228374 0.187134,-0.374268c0.052507,-0.090479 0.134628,-0.237007 0.187136,-0.327486c0.084665,-0.145893 0.102468,-0.228374 0.187134,-0.374268c0.052507,-0.090481 0.122446,-0.190697 0.14035,-0.233919c0.05064,-0.122252 0.10227,-0.125967 0.187136,-0.187134c0.053673,-0.038685 0.115032,-0.032442 0.14035,-0.093567c0.017902,-0.043222 0.046783,-0.093567 0.093567,-0.093567c0.046783,0 0.050344,-0.028883 0.093567,-0.046785c0.061125,-0.025318 0.097128,-0.028879 0.140352,-0.046783c0.061125,-0.025318 0.079226,-0.115032 0.14035,-0.14035c0.086445,-0.035807 0.143911,-0.075665 0.187134,-0.093567c0.061125,-0.025318 0.14035,-0.093567 0.233917,-0.187134c0.046785,-0.046783 0.140352,-0.093569 0.233919,-0.140352c0.093567,-0.046783 0.184053,-0.1471 0.280701,-0.187134c0.136683,-0.056616 0.230839,-0.1471 0.327486,-0.187134c0.136681,-0.056616 0.23642,-0.072069 0.327486,-0.093567c0.101812,-0.024036 0.190695,-0.12245 0.233917,-0.140352c0.061125,-0.025318 0.14035,-0.093567 0.187134,-0.14035c0.046783,-0.046783 0.046783,-0.093567 0.140352,-0.187134c0.046783,-0.046783 0.079182,-0.10227 0.14035,-0.187136c0.038685,-0.053673 0.079184,-0.149052 0.14035,-0.233917c0.077372,-0.107346 0.12657,-0.156548 0.233917,-0.233917c0.084866,-0.061169 0.181593,-0.149254 0.327486,-0.233919c0.090479,-0.052507 0.17837,-0.196808 0.280703,-0.280701c0.130447,-0.106941 0.213247,-0.21143 0.374268,-0.327486c0.084866,-0.061167 0.187136,-0.14035 0.327486,-0.280701c0.093567,-0.093569 0.225153,-0.243595 0.327484,-0.327486c0.130449,-0.106941 0.228376,-0.196033 0.374269,-0.280701c0.090479,-0.052507 0.194256,-0.104546 0.280703,-0.140352c0.122252,-0.050638 0.201107,-0.09116 0.280701,-0.14035c0.088987,-0.054996 0.113163,-0.113163 0.187134,-0.187134c0.073971,-0.073971 0.140352,-0.140352 0.187136,-0.187136c0.046783,-0.046783 0.051363,-0.225704 0.14035,-0.280701c0.079594,-0.049191 0.194256,-0.104544 0.280701,-0.14035c0.122253,-0.050638 0.159948,-0.159948 0.233919,-0.233919c0.073971,-0.073971 0.17275,-0.102268 0.233917,-0.187134c0.038685,-0.053673 0.132137,-0.098145 0.187136,-0.187134c0.049192,-0.079594 0.015789,-0.201639 0.093567,-0.327486c0.034782,-0.05628 0.122448,-0.143911 0.14035,-0.187134c0.050638,-0.122253 0.183279,-0.111668 0.233917,-0.233919c0.017902,-0.043222 0.10227,-0.125967 0.187136,-0.187134c0.053673,-0.038685 0.125967,-0.102268 0.187134,-0.187134c0.038685,-0.053675 0.046783,-0.093569 0.14035,-0.187136c0.046783,-0.046783 0.058783,-0.130854 0.093567,-0.187134c0.07778,-0.125847 0.080194,-0.197037 0.187136,-0.327486c0.041946,-0.051167 0.149052,-0.17275 0.233917,-0.233917c0.107346,-0.077372 0.107462,-0.215851 0.233919,-0.327485c0.078424,-0.069232 0.203329,-0.126572 0.280701,-0.233918c0.061167,-0.084865 0.161816,-0.219576 0.187134,-0.280702c0.053711,-0.129667 0.069534,-0.178889 0.093569,-0.280702c0.032246,-0.136597 0.072069,-0.236422 0.093567,-0.327485c0.024035,-0.101813 0.093567,-0.140351 0.14035,-0.233918c0.046783,-0.093567 0.05776,-0.147473 0.093567,-0.233918c0.025318,-0.061126 0.075663,-0.143911 0.093567,-0.187135c0.025318,-0.061126 0.010977,-0.147473 0.046783,-0.233917c0.02532,-0.061128 0.068251,-0.172792 0.093569,-0.233918c0.053711,-0.129667 0,-0.187135 0.046783,-0.280702c0.046783,-0.093568 0.109762,-0.173355 0.187134,-0.280702c0.061167,-0.084866 0.116316,-0.178889 0.14035,-0.280702c0.032246,-0.136597 0,-0.187135 0.046783,-0.280702c0.046783,-0.093568 0.046783,-0.140351 0.046783,-0.233918c0,-0.093567 -0.053711,-0.197819 0,-0.327485c0.02532,-0.061127 0.068251,-0.172792 0.093569,-0.233918c0.017902,-0.043222 0.046783,-0.140351 0.046783,-0.187135c0,-0.046783 0,-0.14035 0,-0.187134c0,-0.046784 0,-0.093568 0,-0.187135c0,-0.046783 0,-0.093567 0,-0.140351c0,-0.046783 -0.010977,-0.100689 -0.046783,-0.187134c-0.025318,-0.061126 -0.068249,-0.126008 -0.093569,-0.187135c-0.017904,-0.043222 0,-0.093567 0,-0.14035c0,-0.046783 -0.046783,-0.140351 -0.046783,-0.187135c0,-0.046783 0,-0.140351 0,-0.187135c0,-0.093567 0.014383,-0.195836 -0.046783,-0.280702c-0.038685,-0.053674 -0.010977,-0.194256 -0.046783,-0.280702c-0.025318,-0.061126 -0.046783,-0.14035 -0.046783,-0.233917c0,-0.046784 -0.010977,-0.10069 -0.046783,-0.187135c-0.025318,-0.061126 -0.068249,-0.126009 -0.093567,-0.187135c-0.017902,-0.043222 -0.010977,-0.100689 -0.046783,-0.187134c-0.025318,-0.061127 -0.036036,-0.094819 -0.046783,-0.140351c-0.024035,-0.101812 0.005676,-0.134675 -0.093567,-0.233918c-0.033083,-0.033082 -0.104546,-0.100689 -0.140352,-0.187134c-0.050638,-0.122252 -0.080193,-0.150254 -0.187134,-0.280702c-0.041946,-0.051166 -0.093567,-0.093568 -0.14035,-0.187135c-0.046783,-0.093567 -0.100554,-0.115754 -0.140352,-0.140351c-0.088987,-0.054997 -0.051363,-0.178921 -0.14035,-0.233918c-0.039797,-0.024596 -0.03244,-0.068248 -0.093567,-0.093567c-0.086445,-0.035807 -0.132137,-0.00458 -0.187134,-0.093567c-0.024595,-0.039797 -0.093567,-0.093567 -0.140352,-0.140351c-0.093569,-0.093566 -0.149052,-0.125967 -0.233917,-0.187134c-0.053673,-0.038686 -0.064882,-0.136497 -0.187134,-0.187135c-0.043222,-0.017903 -0.112997,-0.055614 -0.140352,-0.093567c-0.086504,-0.120017 -0.172792,-0.115032 -0.233917,-0.140351c-0.086445,-0.035807 -0.184053,-0.053535 -0.280701,-0.093567c-0.136683,-0.056615 -0.228237,-0.116653 -0.374269,-0.140351c-0.09236,-0.014988 -0.235126,-0.078579 -0.327486,-0.093567c-0.146032,-0.023698 -0.219574,-0.115032 -0.280701,-0.140351c-0.086445,-0.035807 -0.147472,-0.010976 -0.233919,-0.046783c-0.061125,-0.025319 -0.100689,-0.010977 -0.187134,-0.046783c-0.061127,-0.025319 -0.144104,-0.061322 -0.280701,-0.093567c-0.101814,-0.024035 -0.187136,-0.046783 -0.280703,-0.093567c-0.093567,-0.046783 -0.228235,-0.06987 -0.374269,-0.093567c-0.138538,-0.022481 -0.228235,-0.023086 -0.374268,-0.046783c-0.09236,-0.014988 -0.187136,0 -0.233919,0c-0.046783,0 -0.093567,0 -0.14035,0c-0.046783,0 -0.093567,0 -0.187134,0c-0.046783,0 -0.14035,0 -0.280703,0c-0.093567,0 -0.187134,0 -0.327484,0c-0.093567,0 -0.279011,0.005421 -0.421053,0.046783c-0.1852,0.053931 -0.284372,0.036952 -0.421053,0.093567c-0.096647,0.040033 -0.237932,0.01967 -0.327484,0.046784c-0.161444,0.048881 -0.235126,0.125363 -0.327486,0.140351c-0.146032,0.023698 -0.190889,0.06132 -0.327486,0.093567c-0.101812,0.024035 -0.23642,0.118854 -0.327484,0.140351c-0.101812,0.024035 -0.233919,0.093567 -0.327486,0.140351c-0.093567,0.046784 -0.147472,0.057761 -0.233917,0.093567c-0.061125,0.025319 -0.107269,0.10727 -0.14035,0.140351c-0.033081,0.033081 -0.079226,0.068248 -0.140352,0.093567c-0.043222,0.017903 -0.032442,0.068248 -0.093567,0.093567c-0.086445,0.035807 -0.079224,0.068248 -0.14035,0.093567c-0.043222,0.017903 -0.079226,0.115032 -0.14035,0.140351c-0.043222,0.017903 -0.115032,0.032442 -0.14035,0.093567c-0.017902,0.043222 -0.032444,0.115031 -0.093569,0.14035c-0.043222,0.017903 -0.05377,0.068972 -0.093567,0.093567c-0.088987,0.054997 -0.055485,0.125968 -0.14035,0.187135c-0.053673,0.038686 -0.00458,0.132137 -0.093567,0.187134c-0.039797,0.024596 -0.079226,0.068248 -0.14035,0.093567c-0.043224,0.017904 -0.046785,0.093567 -0.093569,0.140351c-0.046783,0.046784 -0.068972,0.147338 -0.093567,0.187135c-0.054996,0.088987 -0.115032,0.126008 -0.14035,0.187135c-0.017902,0.043222 -0.046783,0.14035 -0.093567,0.187134c-0.046783,0.046783 -0.060486,0.060486 -0.093567,0.093567c-0.033081,0.033082 -0.068249,0.079225 -0.093569,0.140351c-0.017904,0.043222 -0.013702,0.060486 -0.046783,0.093567c-0.033081,0.033081 -0.028881,0.050345 -0.046783,0.093568c-0.025318,0.061126 -0.060486,0.060486 -0.093567,0.093567c-0.033081,0.033081 -0.046783,0.046783 -0.093567,0.046783c-0.046783,0 -0.048035,0.036035 -0.093567,0.046783c-0.101812,0.024035 -0.126009,0.068249 -0.187136,0.093568c-0.086445,0.035806 -0.147472,-0.035807 -0.233917,0c-0.061125,0.025319 -0.14035,0.093567 -0.187134,0.093567c-0.046783,0 -0.093567,0 -0.140352,0c-0.046783,0 -0.060486,0.013702 -0.093567,0.046783c-0.033081,0.033081 -0.14035,0 -0.187134,0c-0.046783,0 -0.093567,0 -0.140351,0c-0.046783,0 -0.093567,0 -0.14035,0c-0.046783,0 -0.060486,-0.013702 -0.093567,-0.046783c-0.033082,-0.033082 -0.046784,-0.046783 -0.093568,-0.046783c-0.046783,0 -0.060486,-0.013702 -0.093567,-0.046783c-0.033081,-0.033081 -0.060486,-0.10727 -0.093567,-0.140351c-0.033082,-0.033082 -0.093568,-0.046783 -0.140351,-0.093567c-0.046783,-0.046783 -0.064882,-0.136497 -0.187134,-0.187135c-0.043223,-0.017903 -0.085354,-0.051363 -0.140351,-0.14035c-0.024596,-0.039797 -0.032399,-0.10227 -0.093567,-0.187135c-0.038686,-0.053674 -0.115032,-0.079225 -0.140351,-0.14035c-0.017903,-0.043223 -0.068248,-0.079226 -0.093567,-0.140351c-0.017903,-0.043222 -0.050344,-0.075664 -0.093568,-0.093567c-0.061126,-0.025319 -0.036035,-0.094819 -0.046783,-0.140351c-0.024035,-0.101812 -0.051363,-0.132137 -0.14035,-0.187134c-0.039796,-0.024596 -0.060487,-0.10727 -0.093568,-0.140351c-0.033081,-0.033081 -0.079225,-0.068248 -0.14035,-0.093567c-0.086445,-0.035807 -0.102269,-0.0324 -0.187135,-0.093567c-0.053674,-0.038686 -0.093567,-0.046784 -0.14035,-0.093567c-0.046783,-0.046783 -0.068971,-0.053771 -0.093567,-0.093567c-0.054997,-0.088988 -0.147473,-0.057761 -0.233918,-0.093567c-0.061127,-0.025319 -0.149054,-0.079184 -0.233918,-0.140351c-0.053673,-0.038685 -0.142855,-0.07207 -0.233918,-0.093567c-0.101812,-0.024035 -0.233918,-0.093567 -0.327485,-0.093567c-0.093567,0 -0.227029,-0.054882 -0.280702,-0.093567c-0.084865,-0.061167 -0.188386,-0.036035 -0.233918,-0.046783c-0.101812,-0.024035 -0.14035,-0.093567 -0.187135,-0.093567c-0.046783,0 -0.107269,-0.013702 -0.14035,-0.046783c-0.033081,-0.033081 -0.093567,-0.046784 -0.140351,-0.046784c-0.046783,0 -0.113162,-0.06638 -0.187134,-0.140351c-0.073972,-0.073972 -0.235126,-0.078579 -0.327485,-0.093567c-0.146033,-0.023698 -0.228236,-0.116653 -0.374269,-0.140351c-0.092359,-0.014987 -0.234522,-0.03929 -0.280702,-0.046784c-0.146032,-0.023698 -0.236422,-0.025286 -0.327485,-0.046783c-0.101812,-0.024035 -0.225673,-0.069532 -0.327485,-0.093567c-0.091063,-0.021497 -0.187135,-0.046783 -0.280702,-0.046783c-0.093567,0 -0.132106,-0.022749 -0.233918,-0.046783c-0.045532,-0.010749 -0.097128,0.017903 -0.14035,0c-0.061127,-0.025319 -0.093568,-0.046784 -0.140351,-0.046784c-0.046783,0 -0.093567,0 -0.187135,0c-0.046783,0 -0.093567,0 -0.14035,0c-0.046783,0 -0.093567,0 -0.14035,0c-0.046784,0 -0.093568,0 -0.140351,0c-0.046783,0 -0.093567,0 -0.140351,0c-0.046783,0 -0.093567,0 -0.14035,0c-0.093567,0 -0.140351,0.046784 -0.187134,0.046784c-0.046784,0 -0.093567,0.046783 -0.140351,0.046783c-0.046783,0 -0.050345,0.02888 -0.093567,0.046783c-0.061126,0.025319 -0.100689,0.010978 -0.187134,0.046784c-0.061126,0.025319 -0.079225,0.068248 -0.140351,0.093567c-0.043223,0.017903 -0.051363,0.03857 -0.140351,0.093567c-0.039797,0.024596 -0.097128,0.02888 -0.140351,0.046783c-0.061126,0.025319 -0.178921,0.051363 -0.233918,0.140351c-0.024596,0.039797 -0.093567,0.093567 -0.140351,0.093567c-0.046783,0 -0.060486,0.060486 -0.093567,0.093567c-0.033081,0.033081 -0.115032,-0.014342 -0.140351,0.046783c-0.017903,0.043222 -0.060486,0.013702 -0.093567,0.046783c-0.033081,0.033081 -0.050344,0.075664 -0.093567,0.093567c-0.061126,0.025319 -0.10727,0.060486 -0.140351,0.093567c-0.033081,0.033081 -0.055486,0.0324 -0.140351,0.093567c-0.107347,0.077371 -0.111666,0.136497 -0.233918,0.187135c-0.086445,0.035807 -0.140351,0.046783 -0.233918,0.093567c-0.093567,0.046783 -0.143912,0.075664 -0.187135,0.093567c-0.061126,0.025319 -0.107269,0.013702 -0.14035,0.046783c-0.033081,0.033081 -0.060486,0.060486 -0.093567,0.093567c-0.033081,0.033081 -0.050345,0.02888 -0.093567,0.046783c-0.061126,0.025319 -0.046783,0.093567 -0.093567,0.093567c-0.093567,0 -0.126009,0.115032 -0.187135,0.140351c-0.086444,0.035807 -0.097128,0.02888 -0.140351,0.046783c-0.061126,0.025319 -0.068248,0.079225 -0.093567,0.140351c-0.017903,0.043222 -0.068248,0.032442 -0.093567,0.093567c-0.017903,0.043223 -0.02888,0.097128 -0.046783,0.140351c-0.025319,0.061126 -0.013703,0.107269 -0.046784,0.14035c-0.033081,0.033081 -0.036035,0.048036 -0.046783,0.093568c-0.024035,0.101812 -0.093567,0.14035 -0.093567,0.187134c0,0.046783 -0.02888,0.097129 -0.046783,0.140351c-0.025319,0.061126 -0.060486,0.107269 -0.093567,0.14035c-0.033082,0.033082 -0.021464,0.079226 -0.046783,0.140351c-0.017903,0.043222 -0.013703,0.060486 -0.046784,0.093567c-0.033081,0.033081 0,0.093568 0,0.140351c0,0.046783 -0.046784,0.046783 -0.046784,0.093567c0,0.046783 -0.021465,0.079225 -0.046783,0.140351c-0.017903,0.043222 0,0.093567 0,0.14035c0,0.046783 -0.013703,0.060486 -0.046784,0.093567c-0.033081,0.033081 -0.068248,0.079226 -0.093567,0.140351c-0.017903,0.043222 0,0.093567 0,0.14035c0,0.046783 -0.046784,0.046783 -0.046784,0.093568c0,0.046783 0,0.093567 0,0.14035c0,0.046783 0,0.093567 0,0.140351c0,0.046783 0,0.14035 0,0.187134c0,0.046784 0,0.093568 0,0.140351c0,0.046783 0,0.093567 0,0.14035c0,0.046783 0.033081,0.10727 0,0.140351c-0.033081,0.033081 -0.046784,0.093567 -0.046784,0.14035c0,0.046783 0,0.093568 0,0.140351c0,0.046783 0,0.14035 0,0.187134c0,0.046784 0,0.093568 0,0.140351c0,0.046783 0,0.093567 0,0.14035c0,0.046784 0,0.093568 0,0.187135c0,0.046783 0.021465,0.079225 0.046784,0.140351c0.017903,0.043222 0,0.093567 0,0.14035c0,0.046783 0,0.093567 0,0.140351c0,0.046783 0,0.093567 0,0.14035c0,0.046783 0,0.093567 0,0.140351c0,0.093567 0,0.14035 0,0.187134c0,0.046783 0,0.093568 0,0.140351c0,0.046783 0,0.093567 0,0.14035c0,0.046783 0,0.093568 0,0.187135c0,0.046783 0.046784,0.046783 0.046784,0.093567c0,0.046783 0.021464,0.079226 0.046783,0.140351c0.017903,0.043222 0.046784,0.093567 0.046784,0.14035c0,0.093567 0.021465,0.126009 0.046784,0.187135c0.017903,0.043222 0.046783,0.093567 0.046783,0.14035c0,0.046784 0.036035,0.094819 0.046784,0.140351c0.024035,0.101812 0.068248,0.126008 0.093567,0.187135c0.017903,0.043222 0.021465,0.079225 0.046784,0.14035c0.017903,0.043222 0.013702,0.107269 0.046783,0.140351c0.033081,0.033081 0.060486,0.013702 0.093567,0.046783c0.033081,0.033081 -0.014342,0.115031 0.046783,0.14035c0.043222,0.017903 0.075664,0.097128 0.093567,0.140351c0.025319,0.061126 0.053771,0.068972 0.093567,0.093567c0.088988,0.054997 0.101665,0.086678 0.140351,0.140351c0.061167,0.084866 0.068248,0.126008 0.093567,0.187134c0.017903,0.043222 0,0.093567 0.046783,0.140351c0.046783,0.046783 0.093567,0.093567 0.093567,0.187134c0,0.046784 0.069532,0.038539 0.093567,0.140351c0.010749,0.045532 0.107269,0.060486 0.14035,0.093567c0.033081,0.033081 0.060486,0.107269 0.093567,0.140351c0.033081,0.033082 0.055487,0.032397 0.140351,0.093566c0.053674,0.038687 0.054882,0.086679 0.093567,0.140352c0.061167,0.084866 0.093567,0.093567 0.140351,0.14035c0.093567,0.093567 0.126009,0.161816 0.187134,0.187134c0.043223,0.017904 0.126008,0.115032 0.187134,0.140352c0.043222,0.017904 0.120973,-0.019379 0.187135,0.046783c0.033081,0.033081 0.086677,0.054882 0.140351,0.093567c0.084866,0.061167 0.132137,0.051363 0.187134,0.14035c0.024596,0.039797 0.079184,0.102268 0.140351,0.187134c0.038685,0.053673 0.118593,0.108107 0.187134,0.187136c0.096932,0.111763 0.165377,0.154888 0.233918,0.233917c0.096932,0.111763 0.140351,0.187134 0.233918,0.233917c0.093567,0.046785 0.149053,0.079185 0.233918,0.140352c0.053674,0.038685 0.140351,0.093567 0.187135,0.14035c0.093567,0.093567 0.178369,0.19681 0.280702,0.280703c0.130448,0.106941 0.233918,0.14035 0.327485,0.233917c0.046784,0.046783 0.10727,0.107269 0.140351,0.14035c0.066162,0.066162 0.154054,0.033081 0.187135,0c0.033081,-0.033081 0,-0.093567 0,-0.187134c0,-0.093567 -0.066241,-0.222742 -0.140351,-0.374269c-0.129998,-0.265797 -0.212066,-0.47809 -0.374269,-0.795321c-0.12419,-0.242886 -0.322737,-0.56506 -0.467836,-0.748539c-0.22665,-0.2866 -0.384586,-0.459942 -0.561403,-0.701754c-0.099564,-0.136162 -0.187134,-0.280701 -0.327485,-0.421052c-0.093567,-0.093567 -0.181411,-0.237006 -0.233918,-0.327485c-0.084666,-0.145894 -0.159807,-0.222741 -0.233918,-0.374269c-0.064999,-0.132899 -0.083735,-0.28437 -0.140351,-0.421052c-0.080066,-0.193297 -0.120211,-0.286924 -0.187135,-0.467836c-0.036294,-0.098113 -0.138253,-0.212826 -0.187134,-0.374269c-0.027114,-0.089552 -0.100318,-0.230837 -0.140351,-0.327485c-0.056615,-0.136682 -0.117861,-0.213248 -0.233918,-0.374269c-0.061168,-0.084866 -0.134626,-0.237006 -0.187134,-0.327486c-0.084665,-0.145893 -0.149252,-0.228374 -0.233918,-0.374269c-0.052507,-0.090479 -0.116316,-0.178889 -0.140351,-0.280702c-0.021497,-0.091063 -0.093567,-0.233918 -0.093567,-0.280702c0,-0.14035 -0.06987,-0.228236 -0.093567,-0.374269c-0.014988,-0.09236 -0.046783,-0.233918 -0.046783,-0.327485c0,-0.140351 0,-0.233918 0,-0.327485c0,-0.093568 0,-0.233918 0,-0.327486c0,-0.093567 0,-0.187134 0,-0.233918c0,-0.14035 0,-0.187134 0,-0.233917c0,-0.046784 0.054882,-0.086678 0.093567,-0.140351c0.061167,-0.084865 0.093567,-0.093567 0.093567,-0.187134c0,-0.046784 0.075664,-0.143912 0.093567,-0.187135c0.025319,-0.061126 0.089713,-0.064882 0.140351,-0.187135c0.035806,-0.086445 0.116316,-0.132105 0.140351,-0.233918c0.021497,-0.091063 0.060486,-0.107269 0.093567,-0.14035c0.033081,-0.033081 -0.036035,-0.045532 -0.046784,0c-0.024035,0.101812 -0.052204,0.138659 -0.093567,0.280702c-0.053931,0.185202 -0.069999,0.369954 -0.093567,0.561403c-0.040013,0.325031 0.003804,0.608753 -0.046783,0.935672c-0.043517,0.281226 -0.163629,0.604715 -0.187135,0.842105c-0.02305,0.23278 -0.044686,0.306394 -0.093567,0.467836c-0.027114,0.089552 0.014988,0.235126 0,0.327485c-0.023698,0.146032 -0.069533,0.225673 -0.093567,0.327485c-0.032246,0.136597 0,0.280702 0,0.374269c0,0.187135 0,0.374269 0,0.561403c0,0.187135 0,0.327485 0,0.467836c0,0.093567 0,0.187135 0,0.280702c0,0.046783 -0.033082,0.107269 0,0.140351c0.033081,0.033081 0.046783,0.046783 0.093567,0.093567c0.046783,0.046783 0.032399,0.149053 0.093567,0.233918c0.038686,0.053674 0.093567,0.187134 0.140351,0.280702c0.046783,0.093567 0.149053,0.17275 0.233918,0.233918c0.107347,0.077372 0.126009,0.161815 0.187134,0.187134c0.043222,0.017903 0.046783,0.046783 0.093567,0.046783c0.046783,0 0.027405,0.027406 0.093567,0.093568c0.033081,0.033081 0.075664,0.050344 0.093567,0.093567c0.025319,0.061126 0.10727,0.10727 0.140351,0.140351c0.033081,0.033081 0.060486,0.107269 0.093567,0.14035c0.033081,0.033081 0.075664,-0.003561 0.093567,-0.046783c0.025319,-0.061126 0.046784,-0.140351 0.046784,-0.280702c0,-0.093568 0.01844,-0.281612 0,-0.467836c-0.023506,-0.23739 -0.076985,-0.515208 -0.093567,-0.748537c-0.023451,-0.329979 -0.019773,-0.56252 -0.046783,-0.888889c-0.023472,-0.283604 -0.046783,-0.65497 -0.046783,-0.888888c0,-0.421052 0,-0.65497 0,-0.935672c0,-0.233918 0,-0.51462 0,-0.748538c0,-0.14035 0,-0.327485 0,-0.467835c0,-0.140351 0,-0.233918 0,-0.421053c0,-0.093567 0.031796,-0.235126 0.046783,-0.327485c0.023698,-0.146032 0.116653,-0.181453 0.140351,-0.327485c0.007494,-0.04618 0.093567,-0.093567 0.093567,-0.140351c0,-0.093567 0.054882,-0.13346 0.093567,-0.187134c0.061167,-0.084866 0.093567,-0.140351 0.140351,-0.233918c0.046784,-0.093568 0.122447,-0.190696 0.140351,-0.233918c0.050638,-0.122252 0.140351,-0.14035 0.233918,-0.187135c0.093567,-0.046783 0.130854,-0.105567 0.187134,-0.14035c0.125848,-0.077778 0.180244,-0.101665 0.233918,-0.140351c0.084865,-0.061167 0.148449,-0.086678 0.187134,-0.140351c0.061167,-0.084865 0.187134,-0.140351 0.233918,-0.187135c0.093567,-0.093567 0.187134,-0.14035 0.280702,-0.187134c0.093567,-0.046783 0.237479,-0.02888 0.280702,-0.046783c0.122252,-0.050638 0.172791,-0.115032 0.233918,-0.140351c0.043222,-0.017903 0.097128,0.017903 0.14035,0c0.061126,-0.025319 0.10727,-0.013703 0.140351,-0.046784c0.033081,-0.033081 0.046783,-0.046783 0.093567,-0.046783c0.046783,0 0.134668,-0.023086 0.280702,-0.046783c0.092359,-0.014987 0.225673,-0.069532 0.327485,-0.093567c0.091063,-0.021497 0.233918,0 0.280702,0c0.093567,0 0.187135,-0.046783 0.233918,-0.046783c0.046783,0 0.093567,0 0.14035,0c0.046784,0 0.093568,0 0.187135,0c0.093567,0 0.282295,-0.032269 0.608187,0c0.23739,0.023506 0.470253,0.016808 0.654971,0.046783c0.146032,0.023698 0.241039,0.010977 0.327485,0.046784c0.061126,0.025319 0.053673,0.101665 0,0.14035c-0.084866,0.061168 -0.187135,0.046784 -0.327485,0.046784c-0.093568,0 -0.233918,0 -0.327486,0c-0.187134,0 -0.421052,0 -0.748537,0c-0.187135,0 -0.51462,0 -0.748538,0c-0.374269,0 -0.652786,0.023346 -1.029239,0.046783c-0.186773,0.011628 -0.446744,0.09147 -0.608187,0.140351c-0.134329,0.040671 -0.225673,0.069533 -0.327486,0.093567c-0.045532,0.010748 -0.075664,0.003561 -0.093567,0.046783c-0.025319,0.061126 -0.096655,0.134627 -0.187135,0.187134c-0.145894,0.084665 -0.237587,0.177303 -0.374269,0.233919c-0.289945,0.120099 -0.567506,0.256728 -0.795321,0.327485c-0.340259,0.10568 -0.55216,0.254169 -0.842105,0.374269c-0.136681,0.056615 -0.237673,0.108106 -0.374269,0.140351c-0.101813,0.024035 -0.140351,0.093567 -0.187135,0.093567c-0.046783,0 -0.033081,-0.013702 0,-0.046783c0.033081,-0.033081 0.086677,-0.054882 0.140351,-0.093568c0.084865,-0.061168 0.177637,-0.105567 0.233918,-0.14035c0.125848,-0.077778 0.233918,-0.093568 0.467836,-0.187135c0.233918,-0.093567 0.462245,-0.152138 0.748538,-0.280702c0.229827,-0.103208 0.551368,-0.217778 0.795321,-0.280702c0.365228,-0.094205 0.609612,-0.084499 0.935672,-0.140351c0.235126,-0.040276 0.562201,-0.074273 0.795321,-0.093567c0.283604,-0.023472 0.41537,-0.06987 0.561403,-0.093567c0.092359,-0.014987 0.187134,0 0.374269,0c0.187135,0 0.416738,0.023215 0.608187,0.046783c0.185733,0.022865 0.374269,0 0.561403,0c0.140351,0 0.280702,0 0.421053,0c0.093567,0 0.233917,0 0.327485,0c0.046783,0 0.097128,0.028881 0.14035,0.046784c0.061126,0.025319 0.180737,0.147219 0.280702,0.233918c0.176715,0.153264 0.390073,0.245167 0.701755,0.374269c0.220392,0.09129 0.517035,0.063591 0.701754,0.093567c0.146033,0.023698 0.280702,0.046783 0.374269,0.046783c0.140351,0 0.172792,0.021464 0.233918,0.046783c0.043222,0.017903 0.022188,0.05377 0.046783,0.093567c0.054997,0.088988 0.060487,0.10727 0.093568,0.140351c0.033081,0.033081 0.068248,0.032441 0.093567,0.093567c0.017903,0.043223 0.006987,0.068973 0.046783,0.093568c0.088987,0.054997 0.136497,0.15845 0.187135,0.280702c0.017903,0.043222 0.125967,0.195836 0.187135,0.280702c0.116056,0.161019 0.24282,0.228374 0.327485,0.374269c0.052506,0.090479 0.122447,0.143911 0.14035,0.187135c0.025319,0.061126 0.068248,0.079225 0.093568,0.14035c0.017903,0.043222 0.046783,0.046783 0.046783,0.093567c0,0.046784 0.093567,0.093568 0.14035,0.187135c0.046783,0.093568 0.150254,0.17376 0.280702,0.280702c0.102332,0.083892 0.225673,0.1631 0.327485,0.187135c0.091064,0.021498 0.126009,0.021464 0.187136,0.046783c0.043222,0.017902 0.093567,0 0.14035,0c0.046783,0 0.094774,0.031796 0.187134,0.046783c0.146032,0.023698 0.233919,0.046783 0.374269,0.046783c0.093567,0 0.233917,0 0.327484,0c0.233919,0 0.324406,-0.00675 0.421053,-0.046783c0.136681,-0.056615 0.248423,-0.062572 0.374269,-0.14035c0.05628,-0.034784 0.097128,-0.075665 0.14035,-0.093568c0.061125,-0.025319 0.107269,-0.013702 0.14035,-0.046783c0.033081,-0.033081 0.050344,-0.075665 0.093567,-0.093567c0.061127,-0.025319 0.107271,-0.10727 0.140352,-0.140351c0.066162,-0.066162 0.069532,-0.085321 0.093567,-0.187134c0.010748,-0.045533 0.046783,-0.046784 0.046783,-0.093568c0,-0.046783 0,-0.093567 0,-0.187134c0,-0.046784 -0.068249,-0.079226 -0.093567,-0.140351c-0.035807,-0.086445 0,-0.14035 0,-0.187135c0,-0.046783 0.060486,-0.060486 0.093567,-0.093567c0.033081,-0.033081 0.068249,-0.079225 0.093567,-0.14035c0.017902,-0.043222 0.022749,-0.085322 0.046783,-0.187135c0.010748,-0.045532 0.028879,-0.143911 0.046783,-0.187135c0.025318,-0.061126 0.046783,-0.093567 0.046783,-0.187134c0,-0.046783 0.00458,-0.085354 0.093567,-0.140351c0.039799,-0.024596 0.093569,0 0.046785,0c-0.046785,0 -0.104252,-0.05371 -0.233919,0c-0.061125,0.025319 -0.195835,0.079185 -0.280701,0.140351c-0.16102,0.116056 -0.267555,0.201647 -0.421053,0.327485c-0.130447,0.106941 -0.254993,0.208209 -0.374269,0.327485c-0.119276,0.119274 -0.109762,0.220139 -0.187134,0.327485c-0.061167,0.084865 -0.107269,0.10727 -0.14035,0.140351c-0.033081,0.033081 -0.097128,0.075663 -0.140352,0.093567c-0.061125,0.025319 -0.079226,0.115031 -0.14035,0.14035c-0.086445,0.035807 -0.177637,0.058784 -0.233917,0.093568c-0.125847,0.077778 -0.190889,0.061321 -0.327486,0.093567c-0.101812,0.024035 -0.154053,0.10727 -0.187134,0.140351c-0.099243,0.099242 -0.187134,0 -0.233919,0c-0.046783,0 -0.079226,0.021464 -0.14035,0.046783c-0.086445,0.035807 -0.187134,0 -0.233917,0c-0.140351,0 -0.212826,-0.09147 -0.374269,-0.140351c-0.089552,-0.027114 -0.284371,-0.083735 -0.421052,-0.14035c-0.193297,-0.080067 -0.377939,-0.177303 -0.51462,-0.233918c-0.193296,-0.080066 -0.331155,-0.13052 -0.467836,-0.187135c-0.096648,-0.040032 -0.180244,-0.054881 -0.233918,-0.093567c-0.084866,-0.061167 -0.126008,-0.115031 -0.187134,-0.140351c-0.043222,-0.017903 -0.143912,-0.02888 -0.187135,-0.046783c-0.061126,-0.025319 -0.097128,-0.075664 -0.14035,-0.093567c-0.061127,-0.025319 -0.085322,-0.116316 -0.187135,-0.14035c-0.045532,-0.010749 -0.086677,-0.008099 -0.14035,-0.046784c-0.084866,-0.061168 -0.181453,-0.069869 -0.327486,-0.093567c-0.04618,-0.007494 -0.178888,-0.022749 -0.280702,-0.046783c-0.136596,-0.032246 -0.233917,-0.046783 -0.374269,-0.046783c-0.093567,0 -0.235126,0.014988 -0.327485,0c-0.146033,-0.023698 -0.328693,-0.07858 -0.421053,-0.093568c-0.146032,-0.023698 -0.27723,-0.070061 -0.514619,-0.093567c-0.139668,-0.01383 -0.327486,-0.046783 -0.51462,-0.046783c-0.233918,0 -0.327485,0 -0.467836,0c-0.093567,0 -0.235126,-0.014988 -0.327485,0c-0.146033,0.023698 -0.233918,0.046783 -0.327485,0.046783c-0.046783,0 -0.140351,0 -0.280702,0c-0.046783,0 -0.187135,0 -0.280702,0c-0.140351,0 -0.280702,0 -0.467836,0c-0.140351,0 -0.31924,0.069532 -0.421052,0.093567c-0.091064,0.021498 -0.24262,-0.014383 -0.327486,0.046784c-0.053673,0.038686 -0.053906,0.05776 -0.140351,0.093567c-0.061126,0.025319 -0.060486,0.060486 -0.093567,0.093567c-0.033081,0.033081 -0.097128,0.02888 -0.140351,0.046783c-0.061126,0.02532 -0.107269,0.060487 -0.14035,0.093568c-0.033081,0.033081 -0.101665,0.086677 -0.140351,0.14035c-0.061167,0.084865 -0.093567,0.093567 -0.140351,0.140351c-0.046783,0.046783 -0.038538,0.163099 -0.140351,0.187134c-0.045532,0.010749 -0.032441,0.068248 -0.093567,0.093568c-0.043222,0.017903 -0.090006,0.075664 -0.046783,0.093567c0.061126,0.025319 0.141602,-0.082818 0.187134,-0.093567c0.101813,-0.024035 0.226343,-0.115346 0.467836,-0.187135c0.228661,-0.067974 0.469872,-0.081034 0.795321,-0.140351c0.424333,-0.07734 0.755184,-0.139129 1.263157,-0.233917c0.33481,-0.062476 0.653028,-0.116923 1.076023,-0.140351c0.280272,-0.015523 0.65497,0 0.935672,0c0.374269,0 0.654971,0 0.982456,0.046783c0.327485,0.046784 0.561403,0.093568 0.795321,0.140351c0.233918,0.046783 0.41936,0.098988 0.561403,0.14035c0.185201,0.05393 0.377289,0.009314 0.608187,0.046783c0.146032,0.023698 0.327485,0.046784 0.467835,0.093568c0.140351,0.046783 0.237673,0.014537 0.374269,0.046783c0.101812,0.024035 0.230837,0.100317 0.327485,0.14035c0.136681,0.056616 0.244601,0.039859 0.374269,0.093568c0.122252,0.050638 0.24262,0.079184 0.327485,0.14035c0.107347,0.077372 0.230838,0.100319 0.327485,0.140351c0.136683,0.056616 0.237589,0.036952 0.374269,0.093567c0.096647,0.040033 0.225672,0.069532 0.327486,0.093568c0.136597,0.032246 0.228235,0.023086 0.374268,0.046783c0.138538,0.022482 0.280703,0 0.421053,0c0.093567,0 0.233917,0 0.327486,0c0.14035,0 0.14035,-0.046783 0.233917,-0.093568c0.093567,-0.046783 0.132105,-0.116316 0.233917,-0.14035c0.091066,-0.021498 0.119259,-0.09147 0.280703,-0.140351c0.044777,-0.013557 0.187134,-0.093567 0.280701,-0.14035c0.093567,-0.046783 0.182753,-0.145189 0.233919,-0.187135c0.130447,-0.106941 0.126976,-0.197038 0.233917,-0.327485c0.041946,-0.051166 0.116316,-0.132105 0.14035,-0.233918c0.032246,-0.136596 0.046783,-0.187134 0.093569,-0.233918c0.093567,-0.093567 0.111666,-0.183279 0.233917,-0.233917c0.129667,-0.05371 0.233917,-0.093568 0.327486,-0.140351c0.093567,-0.046783 0.167755,-0.027405 0.233917,-0.093567c0.066162,-0.066162 0.046783,-0.140351 0.093567,-0.187135c0.046783,-0.046783 0.054882,-0.133461 0.093567,-0.187135c0.061167,-0.084866 0.036036,-0.141602 0.046783,-0.187134c0.024035,-0.101813 0.115034,-0.172792 0.140352,-0.233918c0.053709,-0.129667 0.042929,-0.158451 0.093567,-0.280702c0.035807,-0.086445 0.054882,-0.133461 0.093567,-0.187135c0.061167,-0.084865 0.079184,-0.149053 0.14035,-0.233918c0.038685,-0.053673 0.100554,-0.115756 0.14035,-0.140351c0.088989,-0.054997 0.09713,-0.075664 0.140352,-0.093567c0.061125,-0.025319 0.060486,-0.060486 0.093567,-0.093567c0.033081,-0.033081 -0.050344,-0.064687 -0.093567,-0.046783c-0.061125,0.025319 -0.100689,0.05776 -0.187136,0.093567c-0.061125,0.025319 -0.141602,0.082819 -0.187134,0.093567c-0.101812,0.024035 -0.180244,0.054882 -0.233917,0.093567c-0.084866,0.061168 -0.133463,0.054882 -0.187136,0.093567c-0.084866,0.061167 -0.149052,0.0324 -0.233917,0.093567c-0.053673,0.038686 -0.143911,0.075665 -0.187134,0.093567c-0.061127,0.025319 -0.126011,0.115032 -0.187136,0.140351c-0.043222,0.017903 -0.097128,0.075664 -0.14035,0.093567c-0.061125,0.025319 -0.093567,0.046783 -0.14035,0.093567c-0.046783,0.046784 -0.079184,0.055486 -0.140352,0.140351c-0.038687,0.053673 -0.075665,0.097128 -0.093567,0.140351c-0.025318,0.061126 -0.075665,0.097129 -0.093567,0.140351c-0.025318,0.061126 -0.028881,0.097128 -0.046783,0.14035c-0.025318,0.061126 -0.013702,0.10727 -0.046783,0.140351c-0.033081,0.033081 -0.068249,0.079225 -0.093567,0.14035c-0.017902,0.043222 -0.013702,0.060486 -0.046783,0.093567c-0.033081,0.033082 -0.046783,0.046784 -0.046783,0.093568c0,0.046783 -0.046783,0.14035 0,0.14035c0.046783,0 -0.066162,-0.120972 0,-0.187134c0.033081,-0.033081 0.080193,-0.103471 0.187134,-0.233918c0.083891,-0.102331 0.214924,-0.211135 0.327486,-0.280702c0.125847,-0.077777 0.228374,-0.196037 0.374268,-0.280702c0.18096,-0.105015 0.380445,-0.175687 0.561403,-0.280702c0.145893,-0.084665 0.277622,-0.193885 0.374269,-0.233918c0.136681,-0.056615 0.228235,-0.116653 0.374269,-0.140351c0.09236,-0.014987 0.14035,0 0.187134,0c0.046783,0 0.141602,-0.036035 0.187134,-0.046783c0.101812,-0.024035 0.187136,-0.046783 0.233919,-0.046783c0.093567,0 0.189636,-0.025287 0.280701,-0.046784c0.101812,-0.024035 0.14035,-0.093567 0.187134,-0.093567c0.046785,0 0.140352,0 0.187136,0c0.046783,0 0.14035,0 0.233917,0c0.093567,0 0.235126,0.031796 0.327486,0.046783c0.146032,0.023698 0.233917,0.046783 0.327484,0.046783c0.093569,0 0.140352,0 0.233919,0c0.093567,0 0.132105,0.069533 0.233917,0.093567c0.091064,0.021497 0.233919,0.093567 0.327486,0.140351c0.187134,0.093567 0.376202,0.133203 0.561403,0.187134c0.142042,0.041363 0.327484,0.093567 0.421051,0.093567c0.140352,0 0.241041,-0.035807 0.327486,0c0.061125,0.025319 0.060486,0.060486 0.093567,0.093567c0.033081,0.033081 0.060486,0.013703 0.093567,0.046784c0.033081,0.033081 0.003561,0.075664 0.046783,0.093567c0.061127,0.025319 0.132139,0.051363 0.187136,0.140351c0.049192,0.079594 0.046783,0.093568 0.046783,0.140351c0,0.046783 0.046783,0.093567 0.093567,0.187134c0.046783,0.093568 0.136496,0.111667 0.187134,0.233918c0.017902,0.043222 0.068249,0.079224 0.093569,0.140351c0.035807,0.086444 0.021465,0.126008 0.046783,0.187134c0.035807,0.086446 0.010977,0.147473 0.046783,0.233918c0.025318,0.061126 0.046783,0.140351 0.093567,0.233918c0.046783,0.093567 0.025286,0.142855 0.046783,0.233918c0.024035,0.101812 0.075663,0.190695 0.093567,0.233918c0.025318,0.061126 0.046783,0.093567 0.046783,0.14035c0,0.093567 0.068249,0.126009 0.093567,0.187135c0.017902,0.043222 0.021465,0.126008 0.046783,0.187134c0.017904,0.043223 0.010979,0.147473 0.046785,0.233918c0.025318,0.061127 0.046783,0.140351 0.046783,0.187135c0,0.093567 -0.021498,0.142854 0,0.233918c0.024035,0.101812 0.036951,0.190804 0.093567,0.327485c0.040033,0.096648 0.116844,0.230447 0.14035,0.467836c0.01383,0.139668 0.046783,0.327485 0.046783,0.514619c0,0.093568 0,0.233918 0,0.327486c0,0.14035 0,0.233917 0,0.374269c0,0.046783 0,0.093567 0,0.187135c0,0.046783 0.021498,0.142854 0,0.233917c-0.024035,0.101813 -0.080009,0.189142 -0.093567,0.233918c-0.048882,0.161443 -0.093567,0.187135 -0.14035,0.280702c-0.046783,0.093568 -0.136496,0.158449 -0.187136,0.280702c-0.017904,0.043222 -0.054882,0.133462 -0.093567,0.187135c-0.061167,0.084865 -0.028879,0.143911 -0.046783,0.187135c-0.025318,0.061126 -0.093567,0.14035 -0.093567,0.187134c0,0.046783 -0.013702,0.060486 -0.046783,0.093567c-0.033081,0.033081 -0.057531,-0.048035 -0.046783,-0.093567c0.024035,-0.101812 0.055685,-0.181591 0.14035,-0.327485c0.052507,-0.090479 0.107069,-0.227757 0.187134,-0.421052c0.056616,-0.136682 0.200636,-0.414891 0.280703,-0.608188c0.11323,-0.273363 0.167469,-0.428391 0.280701,-0.701754c0.080067,-0.193297 0.109718,-0.429333 0.187136,-0.65497c0.0679,-0.197898 0.13949,-0.314013 0.187134,-0.561403c0.026541,-0.137819 0,-0.327486 0,-0.421053c0,-0.14035 0,-0.280702 0,-0.374269c0,-0.140351 0.046783,-0.233918 0.046783,-0.374269c0,-0.093567 0,-0.233917 0,-0.327485c0,-0.14035 0,-0.187134 0,-0.280702c0,-0.093567 0.035807,-0.147472 0,-0.233917c-0.025318,-0.061127 -0.093567,-0.140351 -0.14035,-0.233918c-0.046783,-0.093568 -0.169067,-0.107462 -0.280703,-0.233918c-0.069233,-0.078424 -0.149052,-0.125968 -0.233917,-0.187135c-0.053673,-0.038686 -0.068972,-0.05377 -0.093567,-0.093567c-0.054996,-0.088987 -0.107269,-0.060486 -0.14035,-0.093568c-0.033083,-0.033082 -0.060488,-0.013702 -0.093569,-0.046783c-0.033081,-0.033081 -0.013702,-0.060486 -0.046783,-0.093567c-0.033081,-0.033081 -0.046783,-0.046783 -0.093567,-0.046783c-0.046783,0 -0.079226,-0.021464 -0.14035,-0.046783c-0.043222,-0.017903 -0.046783,-0.046783 -0.093567,-0.046783c-0.046783,0 -0.093567,0 -0.093567,0.046783c0,0.046783 0.093567,0.187134 0.14035,0.280702c0.093567,0.187134 0.213778,0.474057 0.280701,0.65497c0.072588,0.196227 0.187136,0.374269 0.187136,0.467836c0,0.14035 0.056097,0.283722 0.093567,0.514619c0.023697,0.146033 0.115345,0.319911 0.187134,0.561403c0.067974,0.228662 0.166033,0.552702 0.233919,0.795321c0.076681,0.274048 0.046783,0.467836 0.046783,0.701755c0,0.14035 0,0.327485 0,0.421052c0,0.140351 -0.046783,0.233918 -0.046783,0.374269c0,0.093567 0,0.233917 0,0.327485c0,0.093567 0.014988,0.235126 0,0.327485c-0.023699,0.146032 -0.093569,0.233918 -0.140352,0.327485c-0.046783,0.093567 -0.093567,0.187135 -0.14035,0.233918c-0.093567,0.093567 -0.136496,0.111667 -0.187134,0.233918c-0.017902,0.043222 -0.042929,0.064882 -0.093567,0.187134c-0.035807,0.086446 -0.079185,0.195837 -0.140352,0.280702c-0.077372,0.107347 -0.111666,0.18328 -0.233917,0.233918c-0.086445,0.035807 -0.154325,0.044374 -0.233919,0.093567c-0.088987,0.054997 -0.114529,0.066565 -0.233917,0.140351c-0.088987,0.054997 -0.038412,0.154325 -0.187134,0.233918c-0.041248,0.022076 -0.125969,0.102269 -0.187136,0.187134c-0.077372,0.107346 -0.136496,0.111666 -0.187134,0.233919c-0.017902,0.043222 -0.075665,0.143911 -0.093567,0.187134c-0.050638,0.122252 -0.115755,0.147337 -0.14035,0.187134c-0.054998,0.088989 -0.079184,0.10227 -0.140352,0.187136c-0.038685,0.053673 -0.079184,0.149052 -0.14035,0.233917c-0.038685,0.053673 -0.054882,0.086678 -0.093567,0.14035c-0.061167,0.084866 -0.075665,0.190697 -0.093567,0.233919c-0.025318,0.061125 -0.107269,0.107269 -0.14035,0.14035c-0.033081,0.033081 -0.069534,0.085321 -0.093569,0.187134c-0.010748,0.045532 -0.054882,0.086678 -0.093567,0.14035c-0.061169,0.084866 -0.115032,0.126011 -0.14035,0.187136c-0.035807,0.086445 -0.05377,0.115755 -0.093567,0.14035c-0.088987,0.054996 -0.093567,0.14035 -0.14035,0.187134c-0.046785,0.046785 -0.113165,0.019598 -0.187136,0.093569c-0.073971,0.073971 -0.159946,0.113163 -0.233917,0.187134c-0.073971,0.073971 -0.126572,0.156546 -0.233919,0.233917c-0.084866,0.061167 -0.180244,0.148451 -0.233917,0.187136c-0.084866,0.061167 -0.126009,0.161816 -0.187134,0.187134c-0.043222,0.017902 -0.013702,0.060486 -0.046783,0.093567c-0.033081,0.033081 -0.060488,0.013702 -0.093569,0.046783c-0.033081,0.033081 -0.060486,0.013702 -0.093567,0.046783c-0.033081,0.033081 -0.046783,0.046783 -0.046783,0.093569c0,0.046783 -0.046783,0.093567 -0.093567,0.14035c-0.046783,0.046783 -0.079184,0.149052 -0.14035,0.233917c-0.038685,0.053673 -0.107542,0.091158 -0.187136,0.14035c-0.088989,0.054998 -0.133461,0.148451 -0.187134,0.187136c-0.084866,0.061167 -0.187134,0.093567 -0.233917,0.14035c-0.093567,0.093567 -0.187136,0.14035 -0.280703,0.187134c-0.093567,0.046783 -0.195835,0.125969 -0.280701,0.187136c-0.107346,0.077372 -0.24262,0.17275 -0.327486,0.233917c-0.107346,0.077372 -0.158449,0.136496 -0.280701,0.187134c-0.043222,0.017902 -0.172794,0.115034 -0.233919,0.140352c-0.086445,0.035807 -0.172792,0.068249 -0.233917,0.093567c-0.043222,0.017902 -0.100689,0.010977 -0.187136,0.046783c-0.061125,0.025318 -0.051363,0.132137 -0.14035,0.187134c-0.079594,0.049191 -0.187134,0.140352 -0.233917,0.187136c-0.093567,0.093567 -0.172752,0.195835 -0.233919,0.280701c-0.077372,0.107346 -0.173353,0.203331 -0.280701,0.280703c-0.084864,0.061167 -0.159946,0.159945 -0.233919,0.233917c-0.073971,0.073971 -0.149052,0.125967 -0.233917,0.187134c-0.053673,0.038685 -0.14035,0.093567 -0.187134,0.140352c-0.046783,0.046783 -0.133461,0.101665 -0.187136,0.14035c-0.084866,0.061167 -0.14035,0.093567 -0.233917,0.187134c-0.046783,0.046783 -0.101665,0.086678 -0.14035,0.14035c-0.061169,0.084866 -0.079182,0.102272 -0.14035,0.187136c-0.038687,0.053675 -0.079185,0.149052 -0.140352,0.233917c-0.038685,0.053673 -0.091158,0.154325 -0.14035,0.233919c-0.054996,0.088987 -0.159946,0.06638 -0.233917,0.14035c-0.073971,0.073971 -0.086679,0.148449 -0.140352,0.187134c-0.084866,0.061167 -0.079184,0.102268 -0.14035,0.187134c-0.038685,0.053673 -0.093567,0.093569 -0.14035,0.187136c-0.046783,0.093567 -0.09116,0.154325 -0.14035,0.233917c-0.054998,0.088989 -0.15489,0.165377 -0.233919,0.233919c-0.111763,0.096933 -0.20673,0.113163 -0.280701,0.187134c-0.073971,0.073971 -0.195837,0.079184 -0.280703,0.14035c-0.053673,0.038685 -0.107269,0.060486 -0.14035,0.093567c-0.066162,0.066162 -0.140351,0 -0.187135,0c-0.046783,0 -0.107269,0.033081 -0.14035,0c-0.033081,-0.033081 -0.054882,-0.039894 -0.093568,-0.093567c-0.061168,-0.084864 -0.125966,-0.195835 -0.187134,-0.280701c-0.077372,-0.107347 -0.194003,-0.227522 -0.280702,-0.327486c-0.153264,-0.176714 -0.233918,-0.327486 -0.327485,-0.51462c-0.093568,-0.187134 -0.24282,-0.275158 -0.327486,-0.421053c-0.052507,-0.090479 -0.125966,-0.242619 -0.187134,-0.327484c-0.077372,-0.107347 -0.17275,-0.195837 -0.233918,-0.280703c-0.038685,-0.053673 -0.125968,-0.149052 -0.187135,-0.233917c-0.038686,-0.053673 -0.093567,-0.14035 -0.14035,-0.187134c-0.046783,-0.046783 -0.093567,-0.093569 -0.140351,-0.187136c-0.046783,-0.093567 -0.085353,-0.14493 -0.14035,-0.233917c-0.024595,-0.039797 -0.013974,-0.044374 -0.093568,-0.093567c-0.088987,-0.054996 -0.046783,-0.140352 -0.093567,-0.187136c-0.046783,-0.046783 -0.14035,-0.093567 -0.187134,-0.14035c-0.093568,-0.093567 -0.225154,-0.150026 -0.327486,-0.233917c-0.130447,-0.106941 -0.214922,-0.164351 -0.327485,-0.233919c-0.125847,-0.077778 -0.187134,-0.14035 -0.280702,-0.187134c-0.093567,-0.046783 -0.125967,-0.149052 -0.187134,-0.233917c-0.038687,-0.053675 -0.122448,-0.190697 -0.140351,-0.233919c-0.050638,-0.122252 -0.220544,-0.24382 -0.327485,-0.374268c-0.125838,-0.1535 -0.113901,-0.287766 -0.233918,-0.374269c-0.037952,-0.027355 -0.097128,-0.064686 -0.14035,-0.046783c-0.061127,0.025318 -0.046784,0.14035 -0.046784,0.233917c0,0.14035 -0.014988,0.235126 0,0.327486c0.023698,0.146032 0.140351,0.233917 0.187135,0.280701c0.093567,0.093567 0.190223,0.181412 0.280702,0.233919c0.145894,0.084665 0.243821,0.126976 0.374269,0.233917c0.102332,0.083891 0.197038,0.173759 0.327486,0.280703c0.102331,0.083893 0.20821,0.161427 0.327485,0.280701c0.119275,0.119274 0.243821,0.173759 0.374269,0.280703c0.102331,0.083893 0.196036,0.134808 0.280702,0.280701c0.052507,0.090479 0.173354,0.250114 0.280702,0.327486c0.084865,0.061167 0.178889,0.116316 0.280702,0.14035c0.091063,0.021498 0.178889,0.022749 0.280702,0.046783c0.045532,0.010748 0.143911,-0.017904 0.187135,0c0.061126,0.025318 0.102269,0.0324 0.187134,0.093567c0.107347,0.077372 0.182753,0.145187 0.233918,0.187134c0.130448,0.106943 0.201673,0.165379 0.280702,0.233919c0.111764,0.096933 0.228375,0.102468 0.374269,0.187134c0.09048,0.052507 0.225673,0.116316 0.327486,0.14035c0.136596,0.032246 0.228235,0.023087 0.374269,0.046785c0.09236,0.014988 0.132105,0.022749 0.233917,0.046783c0.091066,0.021498 0.140352,0 0.187136,0c0.046783,0 0.147472,0.035807 0.233917,0c0.061125,-0.025318 0.154854,-0.109358 0.280703,-0.187136c0.112562,-0.069567 0.243593,-0.17837 0.327484,-0.280701c0.106941,-0.130447 0.114643,-0.254995 0.233919,-0.374269c0.119276,-0.119274 0.262289,-0.212336 0.327484,-0.327484c0.095039,-0.167858 0.14035,-0.233919 0.14035,-0.280703c0,-0.046783 -0.013702,-0.060486 -0.046783,-0.093567c-0.066162,-0.066162 -0.230837,-0.00675 -0.327484,-0.046783c-0.136681,-0.056616 -0.280703,-0.046783 -0.374269,-0.046783c-0.14035,0 -0.374269,0 -0.608187,0c-0.233917,0 -0.327938,-0.014536 -0.561403,0c-0.376452,0.023438 -0.888888,0.046783 -1.309941,0.046783c-0.514619,0 -1.029239,0 -1.356724,0c-0.327485,0 -0.654971,0 -0.888888,0c-0.140351,0 -0.280702,-0.046783 -0.280702,0c0,0.046783 0.094818,0.010748 0.14035,0c0.101812,-0.024035 0.231282,-0.055595 0.374269,-0.093567c0.230559,-0.061228 0.561403,-0.093569 0.842105,-0.093569c0.467836,0 0.842105,0 0.935673,0c0.421052,0 1.076022,0 1.590642,0c0.51462,0 1.076023,0 1.497076,0c0.51462,0 0.886944,0.023357 1.30994,0.046785c0.326984,0.01811 0.561403,0.046783 0.795321,0.046783c0.140352,0 0.280703,0 0.233919,0c-0.046783,0 -0.14035,0 -0.280703,0c-0.093567,0 -0.233917,0 -0.327484,0c-0.14035,0 -0.277231,0.116844 -0.51462,0.14035c-0.232779,0.02305 -0.544998,0.187513 -0.888889,0.280701c-0.364052,0.09865 -0.834238,0.254929 -1.30994,0.421053c-0.461126,0.161036 -0.767045,0.238821 -1.122807,0.421053c-0.300261,0.153803 -0.51462,0.233917 -0.701754,0.233917c-0.093568,0 -0.090007,-0.028881 -0.046784,-0.046783c0.061127,-0.025318 0.184053,-0.1471 0.280703,-0.187134c0.136681,-0.056614 0.245335,-0.101112 0.467835,-0.187134c0.25444,-0.09837 0.421053,-0.187136 0.748537,-0.327486c0.327486,-0.14035 0.558254,-0.241507 0.888889,-0.374269c0.370934,-0.148945 0.801247,-0.259569 1.16959,-0.374268c0.381645,-0.118841 0.611032,-0.21711 0.935673,-0.280703c0.189295,-0.037081 0.368586,-0.116653 0.51462,-0.14035c0.09236,-0.014988 0.118162,-0.05377 0.093567,-0.093567c-0.054996,-0.088987 -0.201639,-0.062572 -0.327486,-0.14035c-0.112562,-0.069569 -0.415127,-0.20727 -0.701754,-0.280703c-0.506693,-0.129812 -0.935673,-0.14035 -1.637426,-0.14035c-0.65497,0 -1.170891,0.088045 -1.777777,0.233917c-0.562655,0.135242 -1.076023,0.187136 -1.590643,0.187136c-0.51462,0 -0.842105,0 -1.076023,0c-0.14035,0 -0.187134,0 -0.14035,0c0.046783,0 0.18282,-0.023216 0.374269,-0.046785c0.278599,-0.034298 0.559812,0.023369 1.076023,0.046785c0.373884,0.01696 1.076695,-0.02968 1.730993,0c0.51621,0.023417 1.309785,0.044193 2.058478,0c0.84194,-0.049698 1.589476,-0.116947 2.292397,-0.140352c0.187033,-0.006227 0.654236,-0.053095 1.02924,-0.093567c0.513758,-0.055447 0.845776,-0.083735 0.982456,-0.14035c0.096647,-0.040033 0.122252,-0.136496 0,-0.187136c-0.043222,-0.017904 -0.136967,-0.057625 -0.421053,-0.14035c-0.370403,-0.107861 -0.977922,-0.301136 -1.777777,-0.467836c-1.024109,-0.213438 -1.966631,-0.284601 -2.713449,-0.233917c-1.036381,0.070337 -1.869172,0.338818 -2.573098,0.467836c-0.559822,0.102606 -1.076023,0.14035 -1.497075,0.14035c-0.187135,0 -0.462154,-0.023087 -0.608187,-0.046783c-0.04618,-0.007494 -0.046783,-0.046783 0,-0.093567c0.046783,-0.046783 0.187134,-0.046783 0.374269,-0.046783c0.374269,0 0.421052,0 0.795321,0c0.51462,0 0.982568,0.001663 1.68421,-0.046783c0.655079,-0.045231 1.35961,-0.175167 1.964911,-0.327486c0.517288,-0.130173 1.031664,-0.215706 1.450293,-0.280701c0.471453,-0.073196 0.987713,-0.119162 1.216373,-0.187136c0.241491,-0.071789 0.381159,-0.101665 0.327486,-0.14035c-0.084866,-0.061169 -0.182821,-0.069998 -0.374269,-0.093567c-0.232164,-0.028582 -0.512436,-0.070129 -0.888889,-0.093567c-0.513624,-0.031977 -0.893795,-0.080027 -1.543858,0c-0.574345,0.070705 -0.935673,0.233917 -1.450293,0.374268c-0.51462,0.140352 -1.030663,0.178068 -1.356725,0.233919c-0.235126,0.040276 -0.467835,0.046783 -0.561403,0.046783c-0.093567,0 0.001688,0.017694 0.093568,0c0.247392,-0.047644 0.470975,-0.117689 0.888888,-0.187134c0.425489,-0.070704 0.848471,-0.147856 1.543859,-0.280703c0.568401,-0.108587 1.308931,-0.29142 2.245613,-0.374269c0.607611,-0.053743 1.399397,-0.14027 2.19883,-0.187134c0.70055,-0.041067 1.35454,-0.070129 1.730993,-0.093567c0.326853,-0.02035 0.553909,-0.000605 0.561403,-0.046783c0.023697,-0.146032 -0.278221,-0.058147 -0.467836,-0.093567c-0.370768,-0.069258 -0.748877,-0.136129 -1.356724,-0.187136c-0.514933,-0.043209 -1.217302,-0.130854 -1.964912,-0.093567c-0.469584,0.02342 -1.029238,0.187134 -1.543858,0.280703c-0.51462,0.093567 -0.654236,0.099878 -1.02924,0.14035c-0.513758,0.055447 -0.935673,0.093567 -1.16959,0.093567c-0.280702,0 -0.539906,0.091064 -0.561403,0c-0.024035,-0.101812 0.184232,-0.070095 0.467835,-0.093567c0.233121,-0.019293 0.609506,-0.088051 1.403508,-0.280703c0.37491,-0.090967 1.076881,-0.22941 1.82456,-0.374268c0.702589,-0.136122 1.405127,-0.222494 2.105263,-0.327486c0.562853,-0.084404 0.940901,-0.115141 1.450293,-0.233917c0.331692,-0.077341 0.553158,-0.163101 0.65497,-0.187136c0.045532,-0.010748 0.042768,-0.019669 -0.046783,-0.046783c-0.161444,-0.048882 -0.236788,-0.085363 -0.51462,-0.187134c-0.236567,-0.086657 -0.748539,-0.14035 -1.403509,-0.14035c-0.65497,0 -1.209606,0.208815 -1.777777,0.374268c-0.555603,0.161793 -1.075052,0.238403 -1.497074,0.327486c-0.233408,0.049269 -0.401674,0.112946 -0.467836,0.046783c-0.033081,-0.033081 0.068213,-0.171436 0.233917,-0.280703c0.210329,-0.138691 0.702812,-0.418592 1.356724,-0.701754c0.749763,-0.324669 1.777779,-0.748537 2.853802,-1.16959c1.076021,-0.421052 1.307087,-0.521638 2.105261,-0.842104c1.072271,-0.430516 1.871878,-0.699774 2.573099,-0.888889c0.515015,-0.138897 0.912922,-0.272456 0.888887,-0.374269c-0.032246,-0.136596 -0.283794,-0.015798 -0.561403,0.046783c-0.332251,0.0749 -0.600321,0.208144 -1.076023,0.374269c-0.461124,0.161035 -0.934975,0.282575 -1.30994,0.421052c-0.513678,0.189705 -0.977474,0.336687 -1.403507,0.561403c-0.370115,0.195222 -0.697933,0.379515 -0.888889,0.51462c-0.137699,0.097425 -0.220215,0.200836 -0.187134,0.233918c0.033081,0.03308 0.093567,0 0.233917,0c0.14035,0 0.418932,-0.00893 0.795322,-0.093568c0.465477,-0.104671 0.877176,-0.234732 1.356724,-0.327485c0.507339,-0.098128 0.988888,-0.150483 1.356724,-0.233918c0.288557,-0.065452 0.561403,-0.14035 0.654972,-0.14035c0.046783,0 -0.080421,0.061296 -0.233919,0.187134c-0.130447,0.106942 -0.411478,0.245913 -0.701754,0.467836c-0.453671,0.346844 -0.795322,0.608189 -1.263157,0.888889c-0.467836,0.280703 -0.793634,0.425056 -1.122807,0.561403c-0.232761,0.096413 -0.298605,0.090006 -0.280703,0.046783c0.025318,-0.061125 0.149054,-0.125967 0.233919,-0.187136c0.107347,-0.07737 0.280701,-0.280701 0.421051,-0.421051c0.140352,-0.140352 0.374268,-0.374271 0.65497,-0.654972c0.093569,-0.093567 0.318651,-0.333979 0.561403,-0.654969c0.180693,-0.23893 0.380999,-0.557032 0.561403,-0.842105c0.145876,-0.230514 0.300081,-0.401674 0.233919,-0.467836c-0.033081,-0.033081 -0.067858,0.021076 -0.187134,0.140351c-0.119276,0.119276 -0.267086,0.210871 -0.421053,0.467835c-0.183126,0.30563 -0.407616,0.631035 -0.701754,1.076023c-0.265604,0.401819 -0.505022,0.753986 -0.561403,0.842104c-0.161451,0.252333 -0.377901,0.587511 -0.561403,0.842106c-0.116058,0.16102 -0.230358,0.216015 -0.187136,0.233917c0.122252,0.050638 0.237286,-0.231731 0.327486,-0.374268c0.145876,-0.230515 0.299446,-0.547567 0.467836,-0.795322c0.212019,-0.311949 0.438618,-0.761311 0.65497,-1.216373c0.206816,-0.435004 0.580933,-0.79689 0.701754,-1.263157c0.02347,-0.090575 0.121881,-0.336032 0.280703,-0.65497c0.168131,-0.337636 0.233917,-0.51462 0.233917,-0.654971c0,-0.046783 0,-0.093567 0,-0.046783c0,0.046783 -0.072376,0.145608 -0.14035,0.374269c-0.071789,0.241493 -0.182625,0.562243 -0.280703,1.076023c-0.08946,0.468639 -0.137033,0.982574 -0.14035,1.02924c-0.023451,0.329978 -0.046783,0.701754 -0.046783,0.982456c0,0.187134 -0.033081,0.294403 0,0.327484c0.033081,0.033081 0.102268,0.014383 0.187134,-0.046783c0.107346,-0.077372 0.193644,-0.23271 0.233919,-0.467835c0.055851,-0.326061 0.095675,-0.607982 0.14035,-1.076023c0.049101,-0.514404 0.193487,-1.027708 0.280701,-1.403508c0.151428,-0.652498 0.278131,-1.076965 0.467836,-1.590643c0.138477,-0.374966 0.310879,-0.753744 0.421053,-1.076023c0.081495,-0.238392 0.187134,-0.561403 0.187134,-0.748537c0,-0.093568 0,-0.233918 -0.046783,-0.280702c-0.093567,-0.093568 -0.187134,-0.093568 -0.233917,-0.093568c-0.093567,0 -0.183281,-0.028685 -0.233919,0.093568c-0.053711,0.129666 -0.070415,0.375225 -0.093567,0.65497c-0.023472,0.283604 -0.070129,0.606003 -0.093567,0.982456c-0.026163,0.420238 -0.023346,0.886704 -0.046783,1.263157c-0.017443,0.280159 0,0.51462 0,0.701755c0,0.14035 0.022749,0.31924 0.046783,0.421052c0.010748,0.045532 0,0 0,-0.140351c0,-0.093567 0.013266,-0.234388 0,-0.421052c-0.023451,-0.329978 -0.139997,-0.552775 -0.187134,-0.935672c-0.040012,-0.325031 -0.046783,-0.701755 -0.046783,-1.02924c0,-0.327485 0.00922,-0.655425 0,-0.748537c-0.023506,-0.23739 -0.093569,-0.51462 -0.233919,-0.795321c-0.093567,-0.187135 -0.24843,-0.361123 -0.374268,-0.51462c-0.106943,-0.130448 -0.140352,-0.187135 -0.187136,-0.187135c-0.046783,0 -0.046783,0.093568 -0.046783,0.233918c0,0.140351 0.002846,0.468994 -0.093567,0.701754c-0.136347,0.329173 -0.276791,0.638424 -0.421053,1.076023c-0.135044,0.409638 -0.192493,0.748034 -0.233917,1.216374c-0.053743,0.607612 -0.073315,1.03018 -0.046783,1.403507c0.023451,0.329979 0.14035,0.608188 0.187134,0.748538c0.046783,0.140351 0.054882,0.194025 0.093567,0.140351c0.061167,-0.084866 0.046783,-0.233918 0.046783,-0.374269c0,-0.327485 0.031261,-0.561832 0.046783,-0.842105c0.023428,-0.422995 0.079344,-0.892981 0.233919,-1.403508c0.042871,-0.141594 0.204449,-0.498488 0.327484,-1.122807c0.099913,-0.506989 0.140352,-1.16959 0.140352,-1.543859c0,-0.51462 0.045729,-0.798125 0,-1.16959c-0.023569,-0.191449 -0.107271,-0.294405 -0.140352,-0.327486c-0.033081,-0.033081 -0.138252,-0.021092 -0.187134,0.140351c-0.040672,0.134329 -0.070061,0.324014 -0.093567,0.561403c-0.00922,0.093112 -0.074898,0.319632 -0.14035,0.608187c-0.083435,0.367838 -0.140352,0.748538 -0.233919,1.122807c-0.093567,0.374269 -0.158983,0.846194 -0.233917,1.263158c-0.068239,0.379704 -0.116879,0.745635 -0.14035,1.029239c-0.027012,0.32637 0,0.608188 0,0.888889c0,0.093567 -0.046785,0.233917 -0.046785,0.14035c0,-0.093567 0,-0.280702 0,-0.51462c0,-0.280702 0,-0.65497 0,-1.029239c0,-0.467836 -0.070147,-0.980706 -0.093567,-1.450292c-0.004662,-0.093451 -0.095881,-0.561153 -0.14035,-0.982456c-0.049353,-0.467572 -0.031637,-0.754447 -0.093567,-1.076023c-0.047644,-0.247392 -0.14035,-0.421052 -0.187134,-0.561403c-0.046783,-0.140351 -0.107271,-0.173432 -0.140352,-0.140351c-0.066162,0.066162 0,0.187135 0,0.51462c0,0.187134 0,0.842105 0,1.356724c0,0.467836 -0.038063,0.982727 -0.046783,1.122807c-0.023438,0.376453 -0.046783,0.842105 -0.046783,1.403508c0,0.51462 -0.09742,1.037093 0,1.637426c0.071093,0.438098 0.221806,0.68898 0.327486,1.02924c0.070757,0.227816 0.154053,0.40735 0.187134,0.374269c0.033081,-0.033081 0,-0.187135 0,-0.327485c0,-0.280702 -0.046783,-0.748538 -0.14035,-1.263158c-0.093567,-0.514619 -0.198256,-0.979225 -0.233919,-1.122807c-0.137197,-0.552363 -0.161499,-1.123446 -0.187134,-1.637425c-0.02342,-0.469586 -0.072111,-0.930237 -0.14035,-1.309941c-0.074934,-0.416964 -0.055611,-0.7693 -0.187134,-1.122807c-0.058819,-0.158093 -0.06712,-0.287766 -0.187136,-0.374269c-0.037952,-0.027355 -0.069532,0.085321 -0.093567,0.187134c-0.032246,0.136597 0.016314,0.421459 0,0.748538c-0.02342,0.469586 -0.023661,0.984381 -0.093567,1.68421c-0.070368,0.704458 -0.210073,1.344749 -0.280703,1.964911c-0.068821,0.60428 0,1.263157 0,1.356725c0,0.374269 0,0.748537 0,1.122807c0,0.14035 0.046783,0.280702 0.093569,0.280702c0.046783,0 0.093567,-0.093568 0.093567,-0.233918c0,-0.233918 0.006489,-0.608639 0,-0.65497c-0.047239,-0.337298 -0.312416,-0.972008 -0.467836,-1.497076c-0.177156,-0.598502 -0.41828,-1.395004 -0.51462,-2.011695c-0.086952,-0.556598 -0.016487,-1.076778 -0.046783,-1.68421c-0.02342,-0.469585 -0.046783,-0.795321 -0.046783,-1.16959c0,-0.280702 -0.046783,-0.561403 -0.093567,-0.701754c-0.046783,-0.140351 -0.046783,0.046784 -0.046783,0.187134c0,0.327486 0.116081,0.696601 0.233917,1.263158c0.115894,0.557222 0.163729,1.261989 0.187134,1.964911c0.021795,0.654608 0.046783,1.497075 0.046783,2.105262c0,0.140351 0.023375,0.606839 0.046783,1.216373c0.019749,0.51424 0.03858,0.891759 0.140352,1.16959c0.086657,0.236566 0.098146,0.459622 0.187134,0.51462c0.039797,0.024595 0.093567,0 0.093567,-0.093567c0,-0.187135 -0.014585,-0.556955 -0.093567,-0.842105c-0.115135,-0.415672 -0.315145,-0.912122 -0.467836,-1.590643c-0.103222,-0.458698 -0.093567,-0.608187 -0.093567,-0.982455c0,-0.51462 0.023319,-1.123335 0,-1.637426c-0.023417,-0.516212 -0.046783,-0.935672 -0.14035,-1.356725c-0.093567,-0.421052 -0.145918,-0.758614 -0.233919,-1.029239c-0.032351,-0.099484 -0.093567,-0.233918 -0.093567,-0.140351c0,0.093568 0,0.467836 0,0.842105c0,0.51462 -0.010361,0.94052 -0.14035,1.777777c-0.073196,0.471453 -0.419828,1.146865 -0.51462,1.730994c-0.014988,0.092359 -0.158146,0.510093 -0.280701,1.029239c-0.109615,0.464338 -0.163816,1.216902 -0.187136,1.730993c-0.023417,0.516212 -0.046783,0.795322 -0.046783,1.02924c0,0.093567 0,0.046783 0,-0.046783c0,-0.093567 0,-0.233919 0,-0.421053c0,-0.327485 0,-0.701754 0,-1.30994c0,-0.467836 -0.023346,-0.606003 -0.046783,-0.982456c-0.043606,-0.700397 -0.050417,-1.218642 0,-1.777777c0.046974,-0.520944 0.204325,-1.084692 0.327486,-1.450292c0.113747,-0.337648 0.193884,-0.65189 0.233917,-0.748538c0.056616,-0.136681 0.046783,-0.187134 0.046783,-0.093567c0,0.046783 0,0.327485 0,0.65497c0,0.51462 0.046783,1.263158 0.046783,1.964911c0,0.187135 0,0.888888 0,1.637426c0,1.029239 0,1.730993 0,2.432748c0,0.748537 -0.000639,1.272198 0.093567,1.637426c0.062923,0.243952 0.148451,0.334373 0.187136,0.280701c0.061167,-0.084866 0.046783,-0.233917 0.046783,-0.467836c0,-0.327484 -0.105455,-0.792257 -0.280703,-1.497074c-0.15061,-0.605728 -0.207087,-0.79138 -0.280701,-1.216374c-0.128748,-0.743295 -0.093567,-1.309941 -0.093567,-2.058478c0,-0.608187 0.02968,-1.076695 0,-1.730993c-0.023417,-0.516212 -0.144356,-0.980769 -0.280703,-1.309941c-0.096413,-0.23276 -0.154053,-0.387971 -0.187134,-0.421052c-0.033081,-0.033081 -0.116653,0.134668 -0.14035,0.280701c-0.022482,0.138539 0,0.51462 0,1.076023c0,0.140351 0.059929,0.51758 0,1.122807c-0.070518,0.71217 -0.289433,1.325979 -0.561403,1.918128c-0.288305,0.627709 -0.612982,1.142524 -0.888889,1.730993c-0.232458,0.495797 -0.466396,1.004575 -0.561403,1.543859c-0.064938,0.368593 -0.066162,0.588808 0,0.65497c0.033081,0.033081 0.093567,-0.093567 0.187134,-0.280701c0.093569,-0.187134 0.210499,-0.559654 0.233919,-1.02924c0.023304,-0.467255 0.040424,-0.935816 0.046783,-1.076023c0.023417,-0.516211 0.115923,-0.976874 0.233917,-1.497075c0.115704,-0.510099 0.185984,-1.041377 0.374269,-1.68421c0.112358,-0.383602 0.204697,-0.660495 0.280701,-0.982455c0.033991,-0.143986 0.046783,-0.233918 0.046783,-0.093568c0,0.187135 -0.046783,0.421053 -0.046783,0.748538c0,0.374269 0.023348,0.842521 0,1.497075c-0.023407,0.656222 -0.046783,1.543859 -0.046783,2.245613c0,0.187135 -0.046783,0.608188 -0.046783,1.216374c0,0.51462 0,1.16959 0,1.497074c0,0.327486 0.060486,0.528322 0.093567,0.561403c0.033081,0.033081 0.116655,-0.087885 0.140352,-0.233917c0.044964,-0.277077 0.025473,-0.566067 -0.046783,-0.888889c-0.138988,-0.620962 -0.274368,-1.123289 -0.327486,-1.777776c-0.041801,-0.515048 -0.05217,-0.982559 -0.046783,-1.122807c0.023409,-0.609534 0.093567,-1.169591 0.093567,-1.637426c0,-0.65497 0.065845,-1.176278 0,-1.497075c-0.071638,-0.349017 -0.242817,-0.555861 -0.327484,-0.701755c-0.052507,-0.09048 -0.101667,-0.14724 -0.140352,-0.093567c-0.061167,0.084865 -0.020828,0.235727 -0.046783,0.421052c-0.047239,0.337297 -0.197201,0.839142 -0.233917,0.982456c-0.129812,0.506692 -0.239462,1.276466 -0.51462,2.058478c-0.285479,0.811348 -0.701754,1.824561 -0.842106,2.385964c-0.233919,0.935671 -0.233917,1.730993 -0.233917,2.245613c0,0.327484 -0.045532,0.503872 0,0.51462c0.101814,0.024035 0.101072,-0.232201 0.14035,-0.421053c0.057947,-0.278612 0.116943,-0.700502 0.14035,-1.356726c0.008339,-0.233768 0.004982,-0.467405 0.046785,-0.982454c0.05312,-0.654488 0.023809,-1.359115 0.093567,-1.918128c0.070475,-0.564767 0.196917,-1.167908 0.280701,-1.68421c0.10598,-0.653077 0.14035,-0.982456 0.14035,-1.309941c0,-0.280702 0.09236,-0.593199 0,-0.608187c-0.146032,-0.023698 -0.029341,0.328028 -0.046783,0.608187c-0.023438,0.376452 -0.058672,0.893262 -0.14035,1.403508c-0.098658,0.616324 -0.338423,1.166563 -0.51462,1.824561c-0.149685,0.558987 -0.354733,1.113016 -0.561403,1.730993c-0.216045,0.646009 -0.420771,1.11511 -0.467835,1.543859c-0.045943,0.418537 0,0.701754 0,0.982454c0,0.140352 0,0.187136 0,0.140352c0,-0.093569 0.093567,-0.280703 0.093567,-0.51462c0,-0.327486 0,-0.935673 0.046783,-1.450293c0.046783,-0.51462 0.050891,-0.654167 0.140351,-1.122807c0.098078,-0.51378 0.224892,-1.077669 0.374269,-1.871344c0.088245,-0.468869 0.233727,-0.976132 0.280701,-1.497076c0.033611,-0.372756 0,-0.65497 0,-0.795321c0,-0.14035 -0.062979,-0.15413 -0.14035,-0.046783c-0.061167,0.084866 -0.066917,0.368343 -0.14035,0.654971c-0.129812,0.506692 -0.221189,1.031905 -0.374269,1.730993c-0.216025,0.986544 -0.46074,1.919651 -0.654971,2.807016c-0.225686,1.031076 -0.425517,1.729933 -0.467835,1.918127c-0.157005,0.698215 -0.163707,1.167646 -0.187135,1.590643c-0.012936,0.233559 0.038569,0.416473 0.093567,0.327486c0.073788,-0.11939 0.023278,-0.230448 0.046784,-0.467836c0.03227,-0.325891 0.070158,-0.700407 0.093567,-1.309942c0.005386,-0.140247 0.036486,-0.609066 0.093567,-1.216373c0.079288,-0.843569 0.172806,-1.490513 0.327485,-2.33918c0.118634,-0.650897 0.334019,-1.402458 0.421053,-1.964911c0.101175,-0.653838 0.116899,-1.260664 0.14035,-1.590642c0.026531,-0.373328 0,-0.467836 0,-0.608187c0,-0.093568 -0.008811,-0.002636 -0.046783,0.14035c-0.061228,0.230559 -0.043404,0.516692 -0.093567,1.122807c-0.046944,0.567208 -0.254995,1.409142 -0.421053,2.105263c-0.202798,0.850135 -0.422754,1.496656 -0.467835,1.68421c-0.145873,0.606886 -0.355964,1.256176 -0.51462,1.964911c-0.114263,0.510424 -0.163707,1.120863 -0.187135,1.543859c-0.012936,0.233559 -0.046783,0.467836 0,0.467836c0.046783,0 -0.006633,-0.18737 0,-0.280703c0.023451,-0.329977 0.012132,-0.619158 0.140351,-1.263157c0.028888,-0.145094 0.089767,-0.515217 0.187134,-1.122807c0.090057,-0.561977 0.239721,-1.448662 0.421053,-2.105262c0.193337,-0.700071 0.305593,-1.399923 0.374269,-1.964911c0.073604,-0.605526 0.093568,-0.935673 0.093568,-1.309941c0,-0.233918 0,-0.374269 0,-0.51462c0,-0.046783 -0.036953,-0.043114 -0.093568,0.093568c-0.040032,0.096648 -0.116914,0.278518 -0.14035,0.65497c-0.031977,0.513625 -0.103101,1.173321 -0.187135,1.82456c-0.097464,0.75532 -0.379757,1.589203 -0.561403,2.292397c-0.048244,0.186764 -0.214272,0.801088 -0.374269,1.309942c-0.20861,0.663465 -0.397602,1.026745 -0.421053,1.356724c-0.016582,0.233328 -0.093567,0.467836 0,0.467836c0.093567,0 0.009704,-0.372108 0.046784,-0.561403c0.063594,-0.32464 0.106584,-0.746122 0.187134,-1.216373c0.111704,-0.652124 0.239409,-1.261732 0.467836,-2.152046c0.23969,-0.934211 0.462494,-1.639046 0.748538,-2.573099c0.229637,-0.749862 0.39857,-1.452104 0.421052,-1.590642c0.094791,-0.58413 0.380003,-1.168694 0.421052,-1.450292c0.054408,-0.373238 0.046784,-0.608187 0.046784,-0.701755c0,-0.046783 -0.046784,-0.046783 -0.093568,-0.046783c-0.046783,0 -0.093567,0.046783 -0.14035,0.187135c-0.046783,0.14035 -0.027406,0.21454 -0.093568,0.280702c-0.033081,0.033081 -0.082818,-0.048035 -0.093567,-0.093568c-0.024035,-0.101812 -0.126976,-0.197037 -0.233918,-0.327485c-0.083892,-0.102331 -0.205233,-0.18328 -0.327485,-0.233918c-0.129667,-0.05371 -0.233918,0 -0.280702,0c-0.046783,0 -0.093567,0 -0.187135,0c-0.14035,0 -0.23585,0.039638 -0.421052,0.093568c-0.142043,0.041363 -0.374269,0.093567 -0.608187,0.093567c-0.187135,0 -0.332491,-0.042994 -0.51462,0c-0.101812,0.024035 -0.14035,0.046783 -0.14035,0.093567c0,0.046784 0.033081,0.10727 0,0.140351c-0.066162,0.066162 -0.14156,-0.014988 -0.233918,0c-0.146033,0.023698 -0.272488,0.00458 -0.327485,0.093567c-0.024595,0.039797 0.090899,0.145888 0.280702,0.233918c0.323221,0.14991 1.01936,0.54666 1.730993,0.748538c0.786024,0.222981 1.356724,0.327485 1.871344,0.327485c0.608187,0 0.748138,0.002874 1.076023,0.046783c0.373844,0.050064 0.657473,0.072069 0.748537,0.093567c0.101814,0.024035 0.140352,0.093568 0.140352,0.233918c0,0.046783 0.021465,0.079226 0.046783,0.140351c0.017902,0.043222 0,0.093567 -0.046783,0.093567c-0.093569,0 -0.201639,-0.015789 -0.327486,-0.093567c-0.112562,-0.069568 -0.504179,-0.212661 -0.935673,-0.374269c-0.595901,-0.223185 -0.738384,-0.259953 -1.30994,-0.467835c-0.737002,-0.268057 -1.681391,-0.570622 -2.432747,-0.795321c-0.978931,-0.292757 -1.972464,-0.531801 -2.760233,-0.748538c-0.898761,-0.247274 -1.627011,-0.537668 -2.33918,-0.608187c-0.558671,-0.05532 -0.935672,-0.046783 -1.076023,-0.046783c-0.140351,0 -0.280702,0 -0.327486,0c-0.046783,0 -0.073972,0.06638 0,0.140351c0.073971,0.073972 0.368179,0.251375 0.748538,0.374269c0.507579,0.163999 1.16959,0.233918 1.309941,0.233918c0.467835,0 1.16959,0 1.68421,0c0.795321,0 1.452099,-0.023154 2.19883,0.046783c0.751076,0.070345 1.410494,0.105183 1.730993,0.187134c0.387259,0.099022 0.528321,0.107269 0.561403,0.140351c0.033081,0.033081 -0.001208,0.078579 -0.093568,0.093567c-0.146032,0.023698 -0.327485,0.046783 -0.701754,0.046783c-0.51462,0 -1.171927,0.034732 -1.68421,0.140351c-0.611314,0.126038 -1.214155,0.253802 -1.964911,0.327485c-0.653499,0.064137 -1.16784,0.070147 -1.637426,0.093567c-0.373804,0.018643 -0.63014,-0.17289 -0.701754,0c-0.02532,0.061127 0.183663,0.070062 0.421052,0.093568c0.23278,0.023049 0.611404,0.031271 1.216373,-0.046783c0.518757,-0.066931 1.121555,-0.210511 1.777778,-0.233918c0.093508,-0.003335 0.608974,-0.018325 1.122807,-0.046783c0.422995,-0.023428 0.701754,0 0.701754,-0.046783c0,-0.093567 -0.327485,0 -0.608187,0c-0.093567,0 -0.561403,0 -1.263157,0c-0.654971,0 -1.404122,-0.00845 -2.105263,0.046783c-0.515146,0.040581 -0.96541,0.256392 -1.403508,0.327485c-0.184718,0.029976 -0.403149,0.050344 -0.421052,0.093567c-0.025319,0.061126 0.140351,0.046783 0.374269,0.046783c0.233918,0 0.748538,0 1.356725,0c0.748537,0 0.937751,0.046216 1.450292,0c0.520944,-0.046973 1.120314,-0.210467 1.450292,-0.233918c0.139998,-0.00995 0.092677,-0.002589 -0.046783,0.046784c-0.376801,0.1334 -0.845759,0.206841 -1.637426,0.327485c-0.75289,0.114735 -1.349605,0.316236 -1.964911,0.421052c-0.417627,0.071141 -0.701754,-0.046782 -0.701754,0.093568c0,0.093567 0.172792,-0.068249 0.233918,-0.093568c0.086445,-0.035807 0.233918,-0.046783 0.421052,-0.046783c0.327485,0 0.888888,0 1.82456,0c0.982456,0 2.200465,0.031738 3.415204,-0.046783c1.03133,-0.066666 1.682459,-0.163714 2.152045,-0.187135c0.140177,-0.006991 0.093567,0 0.046783,0c-0.280702,0 -0.842105,0 -1.82456,0c-1.403508,0 -2.947368,0 -4.631577,0c-1.590642,0 -2.713449,0 -3.555553,0c-0.467836,0 -0.748538,0 -0.748538,0.046783c0,0.046783 0.093567,0 0.187135,0c0.327485,0 0.748538,0 0.888888,0c0.467836,0 1.357104,0.030381 2.573098,0c0.936548,-0.023399 2.247211,-0.167606 3.508771,-0.280702c0.890229,-0.079806 1.450292,-0.14035 1.730993,-0.14035c0.093567,0 0.046783,0 -0.093568,0c-0.327485,0 -0.982553,-0.001553 -1.730993,0.046783c-0.701849,0.045327 -1.460706,0.200706 -2.105262,0.421053c-0.476785,0.162992 -0.989651,0.302358 -1.356725,0.421052c-0.239717,0.077513 -0.51462,-0.046784 -0.51462,0.093567c0,0.046783 0.141108,-0.016806 0.327485,0c0.520944,0.046974 1.450292,0.093568 2.339181,0.093568c0.233917,0 1.26947,-0.043658 2.573098,-0.233918c1.271167,-0.185522 2.197577,-0.397646 2.853799,-0.421053c0.187017,-0.006671 0.280703,0 0.140352,0c-0.421053,0 -0.888889,0.046784 -1.076024,0.046784c-0.514619,0 -1.689148,0.043097 -2.900583,0.187134c-1.45876,0.173444 -2.444881,0.41739 -3.321636,0.654971c-0.713964,0.193469 -1.21419,0.304049 -1.590642,0.327485c-0.186773,0.011628 -0.305297,-0.006987 -0.280702,-0.046783c0.054997,-0.088988 0.374327,-0.138021 0.421052,-0.140351c0.469586,-0.02342 1.262823,-0.099654 2.058479,-0.14035c1.075633,-0.055017 2.198768,-0.141518 3.087718,-0.187135c0.93561,-0.048011 1.82456,-0.046783 2.33918,-0.046783c0.51462,0 0.701754,0 0.701754,0.046783c0,0.046783 -0.220445,0.139491 -0.467835,0.187135c-0.459394,0.088472 -1.121833,0.023383 -1.964911,0.046783c-0.888546,0.024663 -1.964911,0.093568 -2.8538,0.280702c-0.888889,0.187135 -1.585279,0.327349 -2.19883,0.374269c-0.326532,0.024971 -0.654971,0 -0.654971,0.046783c0,0.046783 0.140351,0 0.187134,0c0.280702,0 0.795487,0.031538 1.497075,0.046783c1.076785,0.023397 2.19883,0.046784 3.321636,0.046784c0.842105,0 1.68421,0 2.432748,0c0.374269,0 0.51462,0 0.467835,0c-0.14035,0 -0.467835,0 -1.122807,0c-0.935672,0 -2.152045,-0.046784 -3.742688,-0.046784c-1.263157,0 -2.809919,-0.014624 -4.02339,0.233918c-1.078761,0.22095 -1.774261,0.434373 -2.105262,0.51462c-0.231834,0.056205 -0.277141,0.064687 -0.233918,0.046783c0.061126,-0.025319 0.187599,-0.121706 0.561403,-0.14035c0.469585,-0.023421 1.076023,-0.046784 1.918128,-0.046784c0.935672,0 2.152122,-0.001945 3.368419,0.046784c1.12288,0.044988 1.824561,0.046783 2.573099,0.046783c0.467835,0 0.888888,0.046784 0.888888,-0.046783c0,-0.093568 -0.233918,0 -0.467836,0c-0.467836,0 -1.12291,-0.040557 -1.309941,-0.046784c-0.702922,-0.023405 -1.411686,-0.103086 -2.245613,0.046784c-0.759408,0.136477 -1.357578,0.371172 -1.871344,0.51462c-0.328043,0.091593 -0.51462,0.093567 -0.51462,0.14035c0,0.046783 0.184232,-0.023312 0.467836,-0.046783c0.093248,-0.007717 0.608445,-0.027105 1.356724,-0.046783c0.889812,-0.023399 2.105607,-0.064631 3.321636,-0.093568c0.983291,-0.023398 1.916877,-0.116943 2.573098,-0.14035c0.561047,-0.020012 0.982456,0.093568 0.982456,0c0,-0.140351 -0.187135,0 -0.421053,0c-0.514619,0 -1.077075,-0.016913 -1.964911,0.046783c-1.030833,0.073956 -1.926463,0.192916 -2.713449,0.374269c-0.663784,0.152962 -1.16992,0.324603 -1.590643,0.374269c-0.37458,0.044219 -0.608187,0.046783 -0.561403,0.046783c0.046783,0 0.187135,0 0.561403,0c0.65497,0 0.844556,-0.01858 1.543859,-0.093568c1.269665,-0.136148 2.193557,-0.356797 3.415203,-0.561402c0.652532,-0.109288 1.21419,-0.210482 1.590642,-0.233918c0.093387,-0.005814 0,0 -0.280702,0c-0.467835,0 -1.215576,-0.023386 -2.245613,-0.046783c-1.169289,-0.026561 -2.152045,0 -3.36842,0c-1.16959,0 -2.152045,0 -2.292396,0c-0.701754,0 -1.309941,0 -1.637426,0c-0.140351,0 -0.137848,-0.07207 -0.046783,-0.093568c0.101812,-0.024035 0.233918,-0.046783 0.374269,-0.046783c0.233918,0 0.282377,-0.030629 0.561403,0c0.428748,0.047065 0.840514,0.163719 1.356724,0.187135c0.373885,0.01696 0.748538,0.046783 0.982456,0.046783c0.14035,0 0,0.046783 -0.093567,0.046783c-0.280702,0 -0.798333,-0.018158 -1.497076,0.046783c-0.758314,0.070478 -1.398526,0.336688 -1.824561,0.561403c-0.092529,0.048805 -0.334549,0.067118 -0.421052,0.187135c-0.027355,0.037952 0.093567,0.046783 0.280702,0.046783c0.187134,0 0.468974,-0.023049 0.701754,0c0.237389,0.023506 0.602851,0.198209 0.982456,0.374269c0.646442,0.299819 1.146267,0.508549 1.871344,0.654971c0.597914,0.120744 1.26397,0.119729 1.68421,0.093566c0.376452,-0.023438 0.586721,-0.03244 0.561403,-0.093566c-0.053709,-0.129668 -0.277064,-0.018211 -0.701755,-0.093568c-0.697076,-0.123688 -0.88772,-0.163729 -1.590642,-0.187134c-0.841639,-0.028024 -1.542268,0.023368 -2.058479,0.046783c-0.373885,0.01696 -0.542025,0.066162 -0.608187,0c-0.099243,-0.099243 0.17467,-0.262261 0.467836,-0.374269c0.498285,-0.190377 1.168668,-0.210518 2.058478,-0.233917c0.701512,-0.018448 1.544934,-0.009212 2.385964,0.093567c0.702736,0.085879 1.229645,0.124618 1.590642,0.233918c0.100123,0.030314 0.125813,0.118593 0.046784,0.187135c-0.111764,0.096932 -0.371777,0.070116 -0.701755,0.093567c-0.46666,0.033164 -1.031684,-0.026592 -1.68421,0.046783c-0.611488,0.068761 -0.979921,0.24087 -1.356725,0.374269c-0.139461,0.049374 -0.183379,0.079029 -0.046783,0.046783c0.203626,-0.048069 0.371134,-0.198044 0.842105,-0.327486c0.371993,-0.102239 0.888888,-0.14035 1.497075,-0.14035c0.421053,0 0.912587,0.09925 0.888889,-0.046783c-0.014988,-0.09236 -0.181592,0.008902 -0.327486,0.093567c-0.180959,0.105014 -0.521255,0.269539 -0.842105,0.467836c-0.286977,0.177361 -0.608187,0.421053 -0.888888,0.701754c-0.280703,0.280703 -0.288677,0.366722 -0.421052,0.51462c-0.199784,0.223211 -0.233918,0.327484 -0.187135,0.280701c0.093567,-0.093567 0.174222,-0.244337 0.327485,-0.421051c0.043349,-0.049982 0.113025,-0.129175 0.187135,-0.280703c0.064999,-0.132898 0.093567,-0.280701 0.093567,-0.374268c0,-0.140352 -0.033636,-0.295216 -0.187134,-0.421053c-0.130448,-0.106941 -0.369955,-0.303917 -0.561403,-0.327486c-0.185733,-0.022865 -0.257133,-0.004314 -0.280702,0.187136c-0.022864,0.185732 0.026643,0.427273 0.093567,0.608187c0.072589,0.196226 0.138253,0.353176 0.187135,0.51462c0.054228,0.179104 0.051621,0.323101 0.093567,0.374268c0.106941,0.130447 0.132105,0.256668 0.233918,0.280703c0.045532,0.010748 0.046783,-0.046783 0.046783,-0.187136c0,-0.093567 -0.055864,-0.228703 -0.187135,-0.467834c-0.20136,-0.366812 -0.505185,-0.837002 -0.795321,-1.169592c-0.240199,-0.275346 -0.459621,-0.378847 -0.514619,-0.467835c-0.024595,-0.039797 -0.046783,-0.046783 -0.046783,0.046784c0,0.093567 0.014988,0.188342 0,0.280701c-0.023698,0.146032 -0.046784,0.280703 -0.046784,0.421053c0,0.187134 0.08401,0.472099 0.233918,0.795321c0.044015,0.094902 0.187135,0.374269 0.374269,0.561403c0.187135,0.187136 0.379275,0.276913 0.561403,0.233919c0.101813,-0.024035 0.187135,-0.093567 0.187135,-0.187136c0,-0.14035 -0.024906,-0.33679 -0.093567,-0.467834c-0.108563,-0.207201 -0.246643,-0.406855 -0.561403,-0.701756c-0.341405,-0.319864 -0.583133,-0.44278 -0.748538,-0.608186c-0.165405,-0.165405 -0.167756,-0.21454 -0.233918,-0.280702c-0.033081,-0.033081 -0.108555,0.001208 -0.093567,0.093567c0.023698,0.146032 0.215872,0.570742 0.561403,1.216373c0.355952,0.665102 0.783114,1.321115 1.16959,1.730993c0.408504,0.433239 0.491269,0.556984 0.888888,0.748539c0.759826,0.366051 1.296999,0.537481 1.871345,0.608187c0.325031,0.040014 0.506407,-0.00458 0.561403,-0.093569c0.024595,-0.039797 -0.033409,-0.197037 -0.140351,-0.327484c-0.167784,-0.204662 -0.364672,-0.33779 -0.514619,-0.467836c-0.176715,-0.153263 -0.327485,-0.233917 -0.467836,-0.374269c-0.14035,-0.14035 -0.298075,-0.315636 -0.421053,-0.51462c-0.109994,-0.177975 -0.280702,-0.467834 -0.514619,-0.935671c-0.187135,-0.374269 -0.385111,-0.651587 -0.467836,-0.935673c-0.05393,-0.1852 -0.061126,-0.395735 0,-0.421053c0.129667,-0.05371 0.230063,-0.028684 0.280702,0.093569c0.017903,0.043222 -0.009641,0.144442 0.093567,0.374268c0.08571,0.190863 0.166891,0.505714 0.280702,0.888889c0.122808,0.413469 0.267672,0.920265 0.467836,1.403507c0.169846,0.410044 0.340985,0.78916 0.421052,0.982456c0.056616,0.136681 0.093568,0.14035 0.093568,0.093567c0,-0.046783 -0.021464,-0.079226 -0.046783,-0.14035c-0.017903,-0.043222 -0.06987,-0.087885 -0.093568,-0.233917c-0.03747,-0.230898 -0.031049,-0.434324 -0.14035,-0.795322c-0.090944,-0.300367 -0.2762,-0.564457 -0.467836,-0.842104c-0.228608,-0.331215 -0.579209,-0.67572 -0.842105,-0.748539c-0.090172,-0.024977 -0.14035,-0.046783 -0.14035,-0.093567c0,-0.046783 0.130754,-0.197435 0.280702,-0.327484c0.176714,-0.153263 0.419573,-0.376764 0.65497,-0.51462c0.325477,-0.190607 0.605292,-0.377946 0.842105,-0.561404c0.184919,-0.143256 0.294404,-0.173431 0.327485,-0.14035c0.033081,0.033081 0,0.14035 -0.046783,0.280702c-0.046783,0.14035 -0.032931,0.442419 -0.140351,0.701754c-0.025319,0.061125 -0.184602,0.328903 -0.421052,0.748537c-0.185159,0.328608 -0.400973,0.731911 -0.65497,1.169592c-0.210029,0.361916 -0.249707,0.763041 -0.327486,0.888887c-0.034783,0.05628 0,0.046783 0.046784,0c0.093567,-0.093567 0.258142,-0.253906 0.467835,-0.467836c0.255774,-0.260941 0.535582,-0.582241 0.842105,-0.935671c0.043349,-0.049984 0.289904,-0.369287 0.51462,-0.795322c0.195221,-0.370113 0.327485,-0.608187 0.327485,-0.795321c0,-0.233919 -0.056685,-0.360896 -0.187134,-0.467836c-0.051167,-0.041946 -0.082819,-0.045532 -0.093568,0c-0.024035,0.101812 -0.073426,0.193357 -0.14035,0.374269c-0.072589,0.196226 -0.164471,0.475176 -0.280702,0.795321c-0.157243,0.433105 -0.240421,0.854549 -0.374269,1.216373c-0.036294,0.098112 -0.093567,0.467836 -0.093567,0.795322c0,0.327484 0,0.467834 0,0.65497c0,0.046783 0.046783,0 0.046783,-0.046783c0,-0.140352 0.159947,-0.245922 0.233918,-0.467836c0.014794,-0.044382 0.133928,-0.331242 0.327485,-0.65497c0.22649,-0.378811 0.486772,-0.83213 0.701755,-1.263159c0.205653,-0.412323 0.421052,-0.888887 0.421052,-1.076021c0,-0.187136 0,-0.280703 0,-0.233919c0,0.046783 0,0.187134 0,0.421053c0,0.280701 -0.012834,0.556021 -0.046783,0.65497c-0.077418,0.225637 -0.14035,0.608187 -0.233918,0.888889c-0.093567,0.280701 -0.210412,0.604715 -0.233918,0.842104c-0.02305,0.23278 0,0.421053 0,0.561403c0,0.046783 0,0 0,-0.046783c0,-0.046783 0,-0.093567 0,-0.14035l0,-0.046783l0,-0.046783" id="svg_5" stroke-width="1.5" stroke="#ff0000" fill="#ff0000"/>
  <path d="m7.929828,13.119885c-0.046783,-0.046783 -0.093567,-0.046783 -0.14035,-0.093567c-0.046783,-0.046783 -0.10227,-0.079184 -0.187135,-0.140351c-0.053673,-0.038686 -0.150254,-0.126975 -0.280702,-0.233917c-0.102332,-0.083892 -0.201029,-0.169068 -0.327485,-0.280702c-0.078425,-0.069233 -0.187134,-0.140351 -0.280702,-0.233918c-0.093568,-0.093568 -0.187135,-0.187135 -0.280702,-0.280702c-0.093567,-0.093568 -0.173355,-0.156548 -0.280702,-0.233918c-0.084865,-0.061167 -0.126008,-0.115031 -0.187134,-0.140351c-0.043222,-0.017903 -0.115032,0.014342 -0.140351,-0.046783c-0.017903,-0.043222 -0.068248,-0.079225 -0.093567,-0.14035c-0.017903,-0.043222 -0.013702,-0.10727 -0.046783,-0.140351c-0.033081,-0.033081 -0.046784,-0.046783 -0.046784,0c0,0.046783 -0.021464,0.126009 -0.046783,0.187135c-0.017903,0.043222 -0.021464,0.079225 -0.046783,0.14035c-0.017904,0.043223 -0.036035,0.141603 -0.046784,0.187135c-0.024035,0.101812 -0.046783,0.140351 -0.046783,0.280702c0,0.140351 0.156512,0.45887 0.280702,0.701755c0.162203,0.31723 0.374269,0.608187 0.701754,0.935672c0.233918,0.233918 0.51871,0.364629 0.748538,0.467836c0.190861,0.08571 0.329902,0.123542 0.514619,0.093567c0.146033,-0.023698 0.248422,-0.062572 0.374269,-0.140351c0.05628,-0.034783 0.093567,-0.14035 0.093567,-0.187134c0,-0.046783 0,-0.093568 0,-0.187135l-0.046783,-0.093567l-0.561403,-0.654971" id="svg_6" stroke-width="1.5" stroke="#ff0000" fill="#ff0000"/>
  <path d="m14.05848,12.839183c0,0.046783 0,0.093568 0,0.140351l0,0.046783l0,0.046783" id="svg_7" stroke-width="1.5" stroke="#ff0000" fill="#ff0000"/>
  <path d="m12.935674,14.523393c0,0.046783 0,0.093568 0,0.187135l0,0.046783l0,0.046783" id="svg_8" stroke-width="1.5" stroke="#ff0000" fill="#ff0000"/>
  <path d="m19.578945,17.891814c-0.046783,0 -0.075665,0.050344 -0.093567,0.093567c-0.025318,0.061125 -0.097128,0.028881 -0.14035,0.046783c-0.061125,0.025318 -0.086073,0.094172 -0.093567,0.14035c-0.023697,0.146032 -0.116655,0.181452 -0.140352,0.327486c-0.014988,0.09236 -0.054289,0.325766 -0.093567,0.51462c-0.057947,0.27861 -0.046783,0.467834 -0.046783,0.748537c0,0.187134 0.028568,0.334936 0.093567,0.467836c0.07411,0.151527 0.132107,0.163099 0.233919,0.187134c0.091064,0.021498 0.234373,0.037563 0.327484,0.046783c0.237391,0.023506 0.56382,0.076759 0.748539,0.046783c0.292065,-0.047396 0.44548,-0.179264 0.748537,-0.327484c0.132898,-0.064999 0.327486,-0.187136 0.421053,-0.280703c0.14035,-0.14035 0.163099,-0.272455 0.187134,-0.374269c0.042994,-0.182127 0.032246,-0.331238 0,-0.467834c-0.024035,-0.101814 -0.115755,-0.100555 -0.14035,-0.140352c-0.054996,-0.088987 -0.188387,-0.057531 -0.233919,-0.046783c-0.101812,0.024035 -0.237005,0.134628 -0.327484,0.187136c-0.145893,0.084665 -0.217823,0.205334 -0.374269,0.327484c-0.215015,0.167879 -0.370447,0.192383 -0.561403,0.327486c-0.137701,0.097425 -0.283789,0.134626 -0.374269,0.187134c-0.145893,0.084665 -0.242132,0.14493 -0.187134,0.233919c0.024595,0.039797 0.14035,0 0.280703,0c0.093567,0 0.280701,-0.046785 0.467834,-0.140352c0.187136,-0.093567 0.337389,-0.173759 0.467836,-0.280701c0.102331,-0.083891 0.242018,-0.180246 0.280703,-0.233919c0.061167,-0.084866 0.093567,-0.14035 0.093567,-0.187134c0,-0.046783 0,-0.093567 -0.046783,-0.093567c-0.046783,0 -0.126009,-0.068249 -0.187134,-0.093567c-0.129669,-0.053711 -0.233919,0 -0.327486,0c-0.14035,0 -0.233917,0.046783 -0.374269,0.14035c-0.14035,0.093567 -0.327484,0.187132 -0.467836,0.280701c-0.14035,0.093567 -0.228374,0.242821 -0.374268,0.327486c-0.090479,0.052507 -0.187134,0.093567 -0.14035,0.093567c0.046783,0 0.079788,-0.062979 0.187134,-0.14035c0.084866,-0.061167 0.22937,-0.150839 0.327484,-0.187134c0.180914,-0.066923 0.374269,-0.140352 0.701756,-0.187136l0.187134,-0.046783l0.233917,-0.046783l0.187136,-0.046783" id="svg_9" stroke-width="1.5" stroke="#ff0000" fill="#ff0000"/>
  <path d="m10.502926,20.418127c0,0.046783 0.017903,0.097128 0,0.14035c-0.025319,0.061125 -0.046783,0.093567 -0.046783,0.14035c0,0.093569 0,0.187136 0,0.233919c0,0.14035 0,0.233917 0.093568,0.374269c0.093567,0.14035 0.14035,0.327484 0.233917,0.467834c0.093568,0.140352 0.192381,0.230097 0.327486,0.421053c0.097425,0.137699 0.179543,0.366678 0.327485,0.51462c0.147943,0.147942 0.424457,0.228394 0.65497,0.374269c0.142537,0.090202 0.237676,0.251528 0.421053,0.327484c0.086445,0.035807 0.225672,0.069532 0.327485,0.093567c0.136596,0.032246 0.24104,0.010979 0.327485,0.046785c0.061126,0.025318 0.050344,0.075665 0.093567,0.093567c0.061126,0.025318 0.046783,0.093567 0.093567,0.14035l0.046784,0.046783l0.046783,0.046783l0,0.046783" id="svg_10" stroke-width="1.5" stroke="#ff0000" fill="#ff0000"/>
  <path d="m5.637431,6.336262c0.046784,0 0.085322,-0.022749 0.187135,-0.046783c0.045532,-0.010748 0.134808,-0.102469 0.280702,-0.187134c0.090479,-0.052507 0.178042,-0.161329 0.374269,-0.233918c0.180912,-0.066924 0.375704,-0.136248 0.51462,-0.187134c0.236566,-0.086656 0.421052,-0.140351 0.561403,-0.140351c0.14035,0 0.280702,0 0.467836,0c0.14035,0 0.280702,0 0.421052,0c0.093567,0 0.24104,0.010977 0.327485,0.046783c0.061126,0.025319 0.060487,0.10727 0.093568,0.140351c0.033081,0.033081 0.046783,0.046784 0.093567,0.046784l0,0.046783l0,0.046783l0.046783,0.046784" id="svg_11" stroke-width="1.5" stroke="#ff0000" fill="#ff0000"/>
  <path d="m1.754392,10.921055c0,-0.046783 0,-0.093567 -0.046784,-0.14035c-0.046783,-0.046783 -0.010977,-0.100689 -0.046783,-0.187135c-0.025319,-0.061126 -0.046784,-0.093567 -0.046784,-0.14035c0,-0.093568 0,-0.187135 0,-0.280702c0,-0.140351 0,-0.233918 0,-0.374269c0,-0.093567 0.069532,-0.225672 0.093567,-0.327485c0.032246,-0.136596 0.022749,-0.225673 0.046784,-0.327485c0.021497,-0.091063 0.046784,-0.14035 0.046784,-0.233918c0,-0.046783 0,-0.187134 0,-0.233917c0,-0.093568 0.046783,-0.187135 0.046783,-0.233918c0,-0.046783 0.093567,-0.187135 0.093567,-0.280702c0,-0.046784 0.036035,-0.094819 0.046783,-0.140351c0.024035,-0.101812 0.028881,-0.143911 0.046784,-0.187134c0.025319,-0.061127 0.02888,-0.097129 0.046783,-0.140351c0.025319,-0.061126 0.068248,-0.079225 0.093567,-0.14035c0.017904,-0.043223 0,-0.140351 0.046783,-0.187135c0.046784,-0.046784 0.050345,-0.122447 0.093567,-0.140351c0.061126,-0.025319 0.013703,-0.10727 0.046784,-0.140351c0.033081,-0.033081 0.013702,-0.060486 0.046784,-0.093567c0.033081,-0.033081 0.060486,-0.013702 0.093567,-0.046783c0.033081,-0.033081 0,-0.093567 0.046783,-0.093567l0,-0.046783" id="svg_12" stroke-width="1.5" stroke="#ff0000" fill="#ff0000"/>
  <path d="m7.321641,4.511702c-0.046783,0 -0.284717,0.019669 -0.374269,0.046783c-0.161443,0.048881 -0.229372,0.15084 -0.327486,0.187134c-0.180912,0.066924 -0.428504,0.075352 -0.561403,0.140351c-0.151528,0.07411 -0.248421,0.109356 -0.374269,0.187135c-0.112561,0.069567 -0.214924,0.211134 -0.327486,0.280702c-0.125847,0.077778 -0.154245,0.169068 -0.280702,0.280702c-0.078424,0.069232 -0.187135,0.093566 -0.327485,0.233918c-0.046783,0.046784 -0.084802,0.103243 -0.187134,0.187135c-0.130448,0.106942 -0.172751,0.149053 -0.233918,0.233918c-0.038686,0.053673 -0.116653,0.134669 -0.140351,0.280702c-0.014988,0.092359 0.021497,0.236421 0,0.327485c-0.024035,0.101813 -0.014538,0.237673 -0.046783,0.374269c-0.024035,0.101813 -0.046783,0.233918 -0.046783,0.327486l0,0.046783l0,0.046783l-0.046784,0" id="svg_13" stroke-width="1.5" stroke="#ff0000" fill="#ff0000"/>
  <path d="m7.883044,4.418135c0,-0.046783 0.079185,-0.102269 0.140351,-0.187134c0.038686,-0.053674 0.093567,-0.046784 0.14035,-0.093567c0.046783,-0.046783 0.079225,-0.068248 0.140351,-0.093567c0.043222,-0.017903 0.126008,-0.021464 0.187134,-0.046783c0.043222,-0.017903 0.079226,-0.021464 0.140351,-0.046783c0.043222,-0.017903 0.093567,0 0.14035,0c0.046783,0 0.093568,-0.046784 0.140351,-0.046784c0.093567,0 0.14035,-0.046783 0.187134,-0.046783c0.046784,0 0.140351,0 0.233918,0c0.140351,0 0.237673,0.014537 0.374269,0.046783c0.101812,0.024035 0.236421,0.07207 0.327485,0.093567c0.101812,0.024035 0.233918,0.046783 0.327485,0.046783c0.093567,0 0.187135,0 0.233918,0.046784c0.046783,0.046783 0.126571,0.062979 0.233918,0.140351c0.084865,0.061167 0.190222,0.134627 0.280702,0.187134c0.145893,0.084665 0.233917,0.187134 0.421052,0.280702c0.093567,0.046783 0.233918,0.093567 0.327485,0.140351c0.093568,0.046783 0.126009,0.115032 0.187135,0.140351c0.043222,0.017903 0.027405,0.027405 0.093567,0.093567c0.033081,0.033081 0.093568,0.046783 0.093568,0.093567c0,0.046783 0.085353,0.098147 0.14035,0.187135c0.049191,0.079593 0.075664,0.190695 0.093567,0.233918c0.075957,0.183377 0.172751,0.195837 0.233918,0.280702c0.038686,0.053674 0.140351,0.140351 0.187135,0.187135c0.046783,0.046783 0.079225,0.161815 0.14035,0.187134c0.043223,0.017904 0.140351,0.093567 0.187135,0.140351c0.093567,0.093567 0.173355,0.203331 0.280702,0.280702c0.084865,0.061167 0.167756,0.074188 0.233918,0.140351c0.033081,0.033081 0.032441,0.115032 0.093567,0.140351c0.043222,0.017903 0.032441,0.068248 0.093567,0.093567c0.043223,0.017904 0.038539,0.069532 0.140351,0.093567c0.045532,0.010749 0.143911,0.122447 0.187135,0.140351c0.122252,0.050638 0.154053,0.10727 0.187134,0.140351c0.066162,0.066163 0.097129,0.02888 0.140351,0.046783c0.061126,0.025319 0.097128,0.028881 0.14035,0.046784c0.061126,0.025319 0.10069,0.057761 0.187135,0.093567c0.061126,0.025319 0.085321,0.116316 0.187135,0.14035c0.045532,0.010749 0.091559,0.013557 0.046783,0c-0.161443,-0.048881 -0.235783,-0.136794 -0.327485,-0.187134c-0.239132,-0.131271 -0.574271,-0.300184 -0.795321,-0.421053c-0.353108,-0.193078 -0.5487,-0.346377 -0.888888,-0.561403c-0.407152,-0.257353 -0.722772,-0.426331 -1.122807,-0.65497c-0.349404,-0.199702 -0.649757,-0.383349 -0.888888,-0.51462c-0.275108,-0.15102 -0.518377,-0.345095 -0.701755,-0.421052c-0.086445,-0.035807 -0.235126,-0.07858 -0.327485,-0.093567c-0.146033,-0.023698 -0.126009,-0.115032 -0.187135,-0.140351c-0.043222,-0.017903 -0.120972,0.066162 -0.187134,0c-0.033081,-0.033081 -0.046784,-0.046783 -0.093568,-0.046783c-0.093567,0 -0.14035,0 -0.233918,0c-0.046783,0 -0.14035,0 -0.233917,0c-0.046784,0 -0.093568,0 -0.140351,0c-0.046783,0 -0.027188,0.019596 0.046783,0.093567c0.073972,0.073972 0.238253,0.125554 0.421053,0.187134c0.337649,0.113746 0.465343,0.163683 0.795321,0.187134c0.233329,0.016582 0.467835,0 0.701754,0c0.233918,0 0.422986,0.039637 0.608187,0.093567c0.142043,0.041363 0.34489,0.111584 0.51462,0.233918c0.16102,0.116057 0.368726,0.289603 0.51462,0.374269c0.180959,0.105014 0.346386,0.159605 0.561403,0.327486c0.208596,0.162868 0.418866,0.377634 0.561403,0.467836c0.230514,0.145876 0.321942,0.24282 0.467835,0.327485c0.09048,0.052508 0.093568,0.093567 0.140351,0.093567c0.046783,0 0.093567,0.046783 0.093567,0.093567c0,0.046784 0.08001,0.142358 0.093568,0.187135c0.048881,0.161443 0.193433,0.271881 0.327485,0.374269c0.117571,0.0898 0.237673,0.108106 0.374269,0.140351c0.101812,0.024035 0.126009,0.068248 0.187135,0.093567c0.043222,0.017903 0.122448,0.003561 0.14035,0.046783c0.025318,0.061126 0.093567,0.046783 0.14035,0.046783c0.046783,0 0.046783,0.046783 0.093569,0.046783c0.046783,0 0.093567,0 0.14035,0c0.046783,0 0.093567,0 0.14035,0l0.046783,0" id="svg_14" stroke-width="1.5" stroke="#ff0000" fill="#ff0000"/>
  <path d="m15.836258,8.815793c0,-0.046783 0,-0.093567 0,-0.14035c0,-0.046784 0,-0.093568 0,-0.140351c0,-0.093567 0,-0.14035 0,-0.233918c0,-0.046783 0.025286,-0.142854 0.046783,-0.233918c0.024035,-0.101812 0.072069,-0.142854 0.093567,-0.233917c0.024035,-0.101813 0.079184,-0.149054 0.14035,-0.233918c0.038685,-0.053673 0.113163,-0.066381 0.187134,-0.140351c0.073973,-0.073971 0.113165,-0.113163 0.187136,-0.187134c0.073971,-0.073971 0.079184,-0.149053 0.14035,-0.233918c0.077372,-0.107347 0.14035,-0.140351 0.187134,-0.233918c0.046783,-0.093567 0.10227,-0.172751 0.187136,-0.233918c0.107346,-0.077371 0.158449,-0.18328 0.280701,-0.233918c0.086445,-0.035807 0.195837,-0.0324 0.280703,-0.093567c0.053673,-0.038685 0.143911,-0.122447 0.187134,-0.140351c0.061125,-0.025319 0.060486,-0.060486 0.093567,-0.093567c0.033081,-0.033081 0.028879,-0.097128 0.046783,-0.140351c0.025318,-0.061126 0.115032,-0.079224 0.140352,-0.140351c0.017904,-0.043222 0.060486,-0.060486 0.093567,-0.093567c0.066162,-0.066162 0.14035,-0.093567 0.187134,-0.093567c0.046783,0 0.03244,-0.068248 0.093567,-0.093567c0.043222,-0.017903 0.093567,0 0.093567,-0.046783c0,-0.046783 0.003561,-0.075664 0.046783,-0.093567c0.061125,-0.025319 0.108072,-0.015789 0.233919,-0.093567c0.05628,-0.034783 0.178888,-0.116316 0.280701,-0.14035c0.091064,-0.021497 0.225674,-0.069533 0.327486,-0.093567c0.045532,-0.010749 0.115032,-0.032442 0.14035,-0.093567c0.017902,-0.043222 0.050344,-0.02888 0.093567,-0.046783c0.061125,-0.025319 0.093567,-0.093567 0.140352,-0.093567c0.046783,0 0.094818,0.010749 0.14035,0c0.101812,-0.024035 0.14035,-0.046783 0.187134,-0.093567c0.046783,-0.046784 0.126009,-0.068248 0.187134,-0.093567c0.043224,-0.017904 0.046785,-0.046783 0.093569,-0.046783c0.046783,0 0.079224,-0.021465 0.14035,-0.046784c0.043222,-0.017903 0.093567,0 0.14035,0c0.093567,0 0.132105,-0.022749 0.233919,-0.046783c0.045532,-0.010748 0.14035,0 0.187134,0c0.046783,0 0.093567,-0.046783 0.14035,-0.046783c0.046783,0 0.046783,-0.046784 0.093567,-0.046784c0.046783,0 0.140352,-0.046783 0.280703,-0.046783c0.093567,0 0.233917,0 0.327484,0c0.140352,0 0.233919,0 0.374269,0c0.046783,0 0.093567,0 0.187134,0c0.046783,0 0.093569,0 0.140352,0c0.14035,0 0.233917,0 0.374268,0c0.046783,0 0.187136,0 0.233919,0c0.093567,0 0.14035,0 0.233917,0c0.046783,0 0.093567,0 0.187134,0c0.046783,0 0.093569,0 0.140352,0c0.093567,0 0.187134,0 0.327484,0c0.093567,0 0.225674,0.022749 0.327486,0.046783c0.136597,0.032246 0.233917,0 0.374268,0c0.093569,0 0.187136,0 0.233919,0c0.093567,0 0.14035,0 0.233917,0c0.046783,0 0.093567,0 0.140352,0c0.046783,0 0.086678,0.008098 0.14035,0.046784c0.084866,0.061167 0.190222,0.04106 0.280701,0.093567c0.145895,0.084666 0.24262,0.125968 0.327486,0.187135c0.053673,0.038686 0.141602,0.082818 0.187134,0.093567c0.101812,0.024035 0.093567,0.093567 0.14035,0.093567c0.046785,0 0.055487,0.0324 0.140352,0.093567c0.053673,0.038686 0.125967,0.102269 0.187134,0.187134c0.038685,0.053673 0.14035,0.140351 0.187134,0.187134c0.093569,0.093568 0.086679,0.148449 0.140352,0.187135c0.084866,0.061167 0.093567,0.093567 0.14035,0.140351c0.046783,0.046783 0.097128,0.075664 0.14035,0.093567c0.061127,0.025319 0.06638,0.06638 0.14035,0.140351c0.073971,0.073971 0.140352,0.140351 0.187136,0.233918c0.046783,0.093567 0.100554,0.162539 0.14035,0.187134c0.088987,0.054997 0.115032,0.126009 0.14035,0.187135c0.017902,0.043222 0.013702,0.060486 0.046783,0.093567c0.033081,0.033081 0.046783,0.046784 0.046783,0.093567c0,0.046783 0.006987,0.068972 0.046783,0.093567c0.088989,0.054997 0.057762,0.147473 0.093569,0.233918c0.025318,0.061126 0.046783,0.093567 0.046783,0.140351c0,0.046783 0.046783,0.046783 0.046783,0.093567c0,0.046783 -0.033081,0.10727 0,0.140351c0.033081,0.033081 0.068249,0.032441 0.093567,0.093567c0.017904,0.043223 0.010977,0.10069 0.046783,0.187135c0.025318,0.061126 0.068249,0.126008 0.093567,0.187135c0.035807,0.086445 0.028881,0.143911 0.046783,0.187134c0.025318,0.061126 0.068249,0.079225 0.093567,0.140351c0.017902,0.043222 -0.014383,0.102268 0.046785,0.187134c0.038687,0.053674 0.015789,0.154854 0.093567,0.280702c0.034784,0.056281 0.068249,0.172792 0.093567,0.233918c0.035807,0.086446 0.068249,0.172792 0.093567,0.233918c0.017902,0.043222 -0.017902,0.097128 0,0.14035c0.025318,0.061127 0.054882,0.086679 0.093567,0.140351c0.061167,0.084865 0.091469,0.166042 0.14035,0.327485c0.027115,0.089552 0.116655,0.27502 0.140352,0.421053c0.029976,0.184717 0.022749,0.31924 0.046783,0.421052c0.032246,0.136597 0.023087,0.228236 0.046783,0.374269c0.014988,0.09236 -0.021498,0.189638 0,0.280702c0.024035,0.101813 0.093567,0.187135 0.093567,0.280702c0,0.093568 0,0.233918 0,0.327486l0,0.093567l0,0.093567l-0.046783,0.046783" id="svg_15" stroke-width="1.5" stroke="#ff0000" fill="#ff0000"/>
 </g>
</svg>