<svg version="1.1" xmlns="http://www.w3.org/2000/svg" xmlns:xlink="http://www.w3.org/1999/xlink" width="243.000000pt" height="238.000000pt" viewBox="0,0,256,250.72501"><g fill="#00a046" fill-rule="nonzero" stroke="none" stroke-width="1" stroke-linecap="butt" stroke-linejoin="miter" stroke-miterlimit="10" stroke-dasharray="" stroke-dashoffset="0" font-family="none" font-weight="none" font-size="none" text-anchor="none" style="mix-blend-mode: normal"><g transform="translate(-2.10715,-2.01849) scale(1.0535,1.0535)"><g transform="translate(0,238) scale(0.1,-0.1)"><path d="M1138,2259c-594,-51 -1043,-592 -987,-1186c70,-745 834,-1200 1517,-905c364,157 613,504 651,905c44,463 -223,914 -650,1099c-106,45 -218,76 -308,83c-36,3 -82,7 -101,9c-19,2 -74,-1 -122,-5zM1492,2161c93,-24 215,-76 289,-124c84,-54 202,-160 254,-227l47,-61l-142,-250c-79,-137 -147,-248 -151,-247c-7,3 -489,823 -536,912l-15,29l88,-6c49,-3 124,-15 166,-26zM1275,1985c61,-104 125,-216 144,-247l32,-58h-551h-551l40,59c83,121 224,248 361,323c111,62 302,119 380,115c34,-2 37,-5 145,-192zM2158,1603c126,-251 134,-587 22,-849l-19,-44h-291c-161,0 -290,4 -288,8c15,36 534,942 540,942c4,0 21,-26 36,-57zM890,1596c0,-17 -535,-926 -545,-926c-7,0 -26,30 -42,68c-120,265 -123,558 -9,825l16,37h290c160,0 290,-2 290,-4zM1619,1383c68,-120 124,-222 124,-228c0,-5 -55,-108 -123,-227l-123,-218h-262h-262l-127,221l-127,221l127,224l128,224h261h260zM925,678c132,-226 255,-438 274,-471l34,-60l-79,7c-192,18 -331,65 -494,170c-67,44 -201,173 -247,238l-25,37l102,178c57,98 120,208 142,246c21,37 42,67 46,67c4,0 115,-186 247,-412zM2110,622c0,-11 -93,-127 -149,-186c-141,-148 -366,-261 -586,-295c-33,-5 -63,-6 -67,-3c-4,4 -68,113 -143,242c-76,129 -139,238 -142,243c-2,4 241,7 541,7c300,0 546,-4 546,-8z"></path></g></g></g></svg>
