<svg version="1.1" xmlns="http://www.w3.org/2000/svg" xmlns:xlink="http://www.w3.org/1999/xlink" width="512px" height="512px" viewBox="0,0,256,256"><g fill="#111111" fill-rule="nonzero" stroke="none" stroke-width="1" stroke-linecap="butt" stroke-linejoin="miter" stroke-miterlimit="10" stroke-dasharray="" stroke-dashoffset="0" font-family="none" font-weight="none" font-size="none" text-anchor="none" style="mix-blend-mode: normal"><g transform="scale(0.5,0.5)"><path d="M344.5,298c15,-23.6 23.8,-51.6 23.8,-81.7c0,-84.1 -68.1,-152.3 -152.1,-152.3c-84.1,0 -152.2,68.2 -152.2,152.3c0,84.1 68.1,152.3 152.1,152.3c30.5,0 58.9,-9 82.7,-24.4l6.9,-4.8l108.6,108.6l33.7,-34.3l-108.5,-108.6zM301.4,131.2c22.7,22.7 35.2,52.9 35.2,85c0,32.1 -12.5,62.3 -35.2,85c-22.7,22.7 -52.9,35.2 -85,35.2c-32.1,0 -62.3,-12.5 -85,-35.2c-22.7,-22.7 -35.2,-52.9 -35.2,-85c0,-32.1 12.5,-62.3 35.2,-85c22.7,-22.7 52.9,-35.2 85,-35.2c32.1,0 62.3,12.5 85,35.2z"></path></g></g></svg>