<?xml version="1.0" ?><svg id="Icons" viewBox="0 0 136 136" xmlns="http://www.w3.org/2000/svg"><defs><style>.cls-1{fill:#7b7d80;}.cls-2{fill:#525456;}.cls-3{fill:#a4a7ab;}</style></defs><rect class="cls-1" height="21" width="10" x="63" y="98"/><path class="cls-2" d="M13,16H123a2,2,0,0,1,2,2V90a0,0,0,0,1,0,0H11a0,0,0,0,1,0,0V18A2,2,0,0,1,13,16Z"/><path class="cls-3" d="M47,116H89a2,2,0,0,1,2,2v3a0,0,0,0,1,0,0H45a0,0,0,0,1,0,0v-3A2,2,0,0,1,47,116Z"/><path class="cls-3" d="M11,90H125a0,0,0,0,1,0,0v11a2,2,0,0,1-2,2H13a2,2,0,0,1-2-2V90A0,0,0,0,1,11,90Z"/><circle class="cls-2" cx="68" cy="96" r="2"/></svg>